<?xml version="1.0" encoding="UTF-8" standalone="no"?>
<!-- Created with Inkscape (http://www.inkscape.org/) -->

<svg
   xmlns:dc="http://purl.org/dc/elements/1.1/"
   xmlns:cc="http://creativecommons.org/ns#"
   xmlns:rdf="http://www.w3.org/1999/02/22-rdf-syntax-ns#"
   xmlns:svg="http://www.w3.org/2000/svg"
   xmlns="http://www.w3.org/2000/svg"
   xmlns:sodipodi="http://sodipodi.sourceforge.net/DTD/sodipodi-0.dtd"
   xmlns:inkscape="http://www.inkscape.org/namespaces/inkscape"
   version="1.1"
   width="300"
   height="300"
   id="svg2"
   inkscape:version="0.47 r22583"
   sodipodi:docname="crabvector_20.svg">
  <sodipodi:namedview
     pagecolor="#ffffff"
     bordercolor="#666666"
     borderopacity="1"
     objecttolerance="10"
     gridtolerance="10"
     guidetolerance="10"
     inkscape:pageopacity="0"
     inkscape:pageshadow="2"
     inkscape:window-width="1024"
     inkscape:window-height="715"
     id="namedview42"
     showgrid="false"
     inkscape:zoom="0.84666667"
     inkscape:cx="260.75847"
     inkscape:cy="114.20714"
     inkscape:window-x="0"
     inkscape:window-y="25"
     inkscape:window-maximized="1"
     inkscape:current-layer="svg2" />
  <title
     id="title3020">Impressed blond man</title>
  <defs
     id="defs4">
    <inkscape:perspective
       sodipodi:type="inkscape:persp3d"
       inkscape:vp_x="0 : 150 : 1"
       inkscape:vp_y="0 : 1000 : 0"
       inkscape:vp_z="300 : 150 : 1"
       inkscape:persp3d-origin="150 : 100 : 1"
       id="perspective44" />
  </defs>
  <metadata
     id="metadata7">
    <rdf:RDF>
      <cc:Work
         rdf:about="">
        <dc:format>image/svg+xml</dc:format>
        <dc:type
           rdf:resource="http://purl.org/dc/dcmitype/StillImage" />
        <dc:title>Impressed blond man</dc:title>
        <dc:date>04-03-2014</dc:date>
        <dc:creator>
          <cc:Agent>
            <dc:title>Tirso Otero</dc:title>
          </cc:Agent>
        </dc:creator>
        <cc:license
           rdf:resource="http://creativecommons.org/licenses/publicdomain/" />
      </cc:Work>
      <cc:License
         rdf:about="http://creativecommons.org/licenses/publicdomain/">
        <cc:permits
           rdf:resource="http://creativecommons.org/ns#Reproduction" />
        <cc:permits
           rdf:resource="http://creativecommons.org/ns#Distribution" />
        <cc:permits
           rdf:resource="http://creativecommons.org/ns#DerivativeWorks" />
      </cc:License>
    </rdf:RDF>
  </metadata>
  <g
     id="layer2">
    <g
       id="g3820">
      <path
         d="m 185.22322,268.03125 c -0.93635,-0.54677 -4.36765,-2.62562 -5.40625,-3.44197 -2.3439,-1.84231 -5.27771,-4.21242 -9.32143,-8.07589 -1.34045,1.15291 -2.76871,1.86548 -4.2009,2.54018 -1.43219,0.6747 -2.76164,1.24989 -4.20982,1.54018 -1.44818,0.29029 -2.93747,0.48248 -4.32589,0.48214 -1.38842,-3.4e-4 -2.67121,-0.14657 -3.92411,-0.34375 -1.94316,-0.3058 -3.7625,-0.48035 -5.20089,-0.96875 -1.43839,-0.4884 -2.85818,-1.50356 -3.53125,-1.81696 -1.40365,1.84553 -2.60315,3.63916 -3.70536,4.82589 -1.10221,1.18673 -2.20631,2.13455 -3.10268,3 -0.39553,0.38257 -4.41105,3.64504 -4.83928,4.04464 9.53063,12.84757 36.86187,24.63472 51.76786,-1.78571 z"
         id="path2992"
         style="fill:#d71e38;fill-opacity:1;stroke:none" />
      <path
         d="m 148.60268,78.294643 c -0.94773,0.04657 -1.99441,0.146404 -3.09375,0.40625 -1.09934,0.259846 -2.23789,0.673708 -3.40625,1.28125 -2.37956,1.237374 -7.35732,3.543603 -12.59375,5.59375 -2.45828,0.962459 -4.92358,1.828123 -7.25,2.5 -2.32642,0.671877 -4.49459,1.152098 -6.34375,1.3125 -0.23729,1.392827 -0.72388,3.316728 -1.5625,6.09375 -0.94188,3.11893 -2.18692,6.914357 -3.4375,10.781247 -2.47535,7.65405 -5.02628,15.53621 -5.8125,18.875 0.0691,0.81516 0.54622,2.32288 1.375,3.96875 0.84917,1.68639 1.97115,3.50915 3.09375,5.25 2.24519,3.48167 4.46875,6.4375 4.46875,6.4375 l 0.375,0.4375 -0.21875,0.5625 -4.46875,12.34375 c -0.66153,-0.2301 -1.12337,-0.28046 -2,-0.4375 -0.19272,-0.92505 -0.87753,-2.64944 -1.875,-4.78125 -0.99747,-2.13181 -2.29845,-4.65636 -3.75,-7.15625 -0.55163,-0.95003 -1.16396,-1.81411 -1.75,-2.75 0.60005,0.97839 0.99821,1.96167 1.125,2.90625 0.13632,1.01561 0.0205,1.97239 -0.28125,2.84375 -0.30172,0.87136 -0.78593,1.66661 -1.343751,2.34375 -0.0243,0.0295 -0.0378,0.0645 -0.0625,0.0937 -0.40738,0.60885 -0.65495,1.14599 -0.78125,1.625 -0.1263,0.47901 -0.12834,0.90765 -0.0625,1.28125 0.13585,0.77092 0.57636,1.43368 1.218751,2.03125 0.64239,0.59758 1.44148,1.06031 2.0625,1.375 0.62102,0.31469 1.0625,0.5 1.0625,0.5 l 0,0.0625 c 0.43786,-0.004 0.85459,0.0177 1.25,0.0625 0.79082,0.0896 1.50085,0.2577 2.125,0.5 0.62415,0.2423 1.1672,0.56461 1.625,0.90625 0.62448,0.48411 0.96657,0.96094 1.03125,1.5625 0.0647,0.60156 -0.16386,1.32869 -0.65625,2.28125 0,0 -0.0661,-0.32446 -0.3125,-0.75 -0.24635,-0.42554 -0.66953,-0.95767 -1.3125,-1.4375 -0.69994,-0.50209 -1.46909,-0.79588 -2.25,-0.96875 -0.78091,-0.17287 -1.55252,-0.2298 -2.3125,-0.28125 -0.75998,-0.0514 -1.48783,-0.0809 -2.125,-0.21875 -0.637171,-0.13782 -1.212551,-0.38053 -1.625001,-0.8125 0.40728,-0.13873 0.80413,-0.24162 1.1875,-0.34375 -0.37934,-0.25878 -0.79198,-0.56739 -1.15625,-0.90625 -0.429013,-0.39908 -0.821183,-0.83843 -1.15625,-1.375 -0.335067,-0.53657 -0.599126,-1.16496 -0.71875,-1.84375 -0.119623,-0.67879 -0.07496,-1.39514 0.125,-2.15625 0.19996,-0.76111 0.567662,-1.57139 1.125,-2.375 l 0.03125,-0.0625 0.03125,-0.0313 c 0.44639,-0.52756 0.77888,-1.08132 1,-1.6875 0.22112,-0.60618 0.31207,-1.24223 0.21875,-1.9375 -0.0595,-0.4434 -0.19517,-0.93285 -0.4375,-1.4375 -0.24233,-0.50465 -0.593232,-1.02698 -1.0625,-1.59375 -0.413193,0.0643 -1.175166,0.18943 -2.09375,0.65625 -0.604532,0.30722 -1.132131,0.72724 -1.5,1.25 -0.36787,0.52275 -0.60681,1.14906 -0.53125,2.09375 -0.624779,-0.80442 -0.875043,-1.52463 -0.875,-2.15625 4.3e-5,-0.63162 0.252927,-1.18776 0.625,-1.65625 0.372073,-0.46849 0.852438,-0.84122 1.34375,-1.15625 0.491312,-0.31503 0.985991,-0.57875 1.34375,-0.75 -0.142952,-0.12202 -0.251605,-0.21948 -0.40625,-0.34375 -0.589001,-0.4733 -1.205955,-0.84162 -1.8125,-1.125 -0.606545,-0.28338 -1.210827,-0.48635 -1.78125,-0.59375 -0.570423,-0.1074 -1.113115,-0.11713 -1.59375,-0.0625 -0.480635,0.0546 -0.912819,0.17228 -1.25,0.375 -0.509282,0.50074 -0.885316,1.03231 -1.15625,1.59375 -0.270934,0.56144 -0.425399,1.16306 -0.53125,1.8125 -0.211702,1.29887 -0.16529,2.77917 -0.15625,4.59375 -0.574534,-1.18574 -0.983571,-2.2725 -1.21875,-3.28125 -0.235179,-1.00875 -0.301038,-1.91325 -0.21875,-2.75 0.08229,-0.83675 0.338368,-1.61468 0.71875,-2.25 0.380382,-0.63532 0.889241,-1.13279 1.5,-1.5 0.610764,-0.3672 1.316177,-0.58443 2.03125,-0.6875 0.268156,-0.0386 0.534985,-0.0595 0.8125,-0.0625 0.971286,-0.0118 1.987049,0.16965 3,0.5625 1.012951,0.39285 2.000782,0.99728 2.9375,1.75 1.274388,1.02406 2.20169,2.02549 2.906251,3.03125 -0.839571,-1.3218 -1.651365,-2.72211 -2.500001,-3.90625 -1.55606,-2.17124 -3.082367,-4.00797 -4.375,-5.1875 -1.310945,-0.70007 -2.50783,-1.07751 -3.5625,-1.25 -1.05467,-0.17249 -1.962893,-0.15116 -2.71875,-0.0313 -1.418703,0.22507 -2.134717,0.6776 -2.25,0.75 -0.180464,0.38447 -0.570094,1.3275 -0.96875,2.6875 -0.398656,1.36 -0.796605,3.15151 -0.9375,5.25 -0.07045,1.04925 -0.08323,2.18557 0,3.375 0.08323,1.18943 0.266092,2.41878 0.5625,3.71875 0.296408,1.29997 0.712173,2.65036 1.28125,4.03125 0.569077,1.38089 1.28626,2.78657 2.1875,4.21875 1.9837,1.61404 3.858087,2.91734 5.5,3.9375 1.641913,1.02016 3.039075,1.78552 4.0625,2.34375 1.152715,0.62875 2.70646,1.71725 4.062501,3 0.67802,0.64137 1.32274,1.31253 1.84375,2 0.52101,0.68747 0.89351,1.41013 1.0625,2.1875 0.0441,0.20292 0.42639,0.99422 1.0625,1.75 0.63611,0.75578 1.49916,1.56032 2.5,2.09375 0.92661,0.49388 1.91253,0.82018 3,0.75 0.54373,-0.0351 1.13082,-0.18158 1.71875,-0.4375 0.58793,-0.25592 1.17773,-0.62629 1.8125,-1.15625 -0.30275,-0.79024 -0.85274,-2.6207 -1.15625,-4.40625 -0.15176,-0.89277 -0.21824,-1.79242 -0.1875,-2.53125 0.0307,-0.73883 0.16497,-1.30862 0.5,-1.625 0,0 0.86121,2.73661 2.53125,7.125 0.83502,2.19419 1.88272,4.82054 3.125,7.6875 1.24228,2.86696 2.66979,5.99317 4.3125,9.25 1.64272,3.25683 3.49811,6.61312 5.53125,9.96875 2.03314,3.35563 4.24735,6.70528 6.65625,9.875 2.4089,3.16972 5.01126,6.17591 7.78125,8.875 1.38499,1.34954 2.80873,2.634 4.28125,3.8125 1.47252,1.1785 2.97305,2.24688 4.53125,3.21875 l 0.0313,0 0,0.0313 c 0.70704,0.47136 1.4803,1.1105 2.3125,1.71875 0.8322,0.60825 1.73661,1.18021 2.78125,1.5 0.5205,0.15933 1.0649,0.26207 1.65625,0.28125 0.59135,0.0192 1.22451,-0.0222 1.90625,-0.21875 0.68174,-0.19657 1.42708,-0.54333 2.21875,-1.03125 0.79167,-0.48792 1.64135,-1.14515 2.5625,-2 0.004,-0.005 -0.004,-0.0263 0,-0.0313 0.007,-0.006 0.0242,0.006 0.0313,0 2.00329,-2.10297 4.37047,-4.90779 6.9375,-8.5 1.28352,-1.7961 2.61378,-3.78487 3.96875,-5.96875 1.35497,-2.18388 2.74491,-4.57429 4.125,-7.15625 1.38009,-2.58196 2.76611,-5.3534 4.125,-8.34375 1.35889,-2.99035 2.67739,-6.1847 3.96875,-9.59375 1.29136,-3.40905 2.54125,-7.03693 3.71875,-10.875 1.1775,-3.83807 2.29518,-7.91011 3.3125,-12.1875 l 0.0313,-0.125 0.0937,-0.125 c 0.70857,-1.22817 1.34679,-2.21463 2,-3.0625 0.65321,-0.84787 1.31038,-1.56382 2.125,-2.1875 0.81462,-0.62368 1.73431,-1.16744 2.875,-1.75 1.14069,-0.58256 2.52773,-1.20869 4.25,-2 -0.61372,0.7225 -1.37438,1.34833 -2.1875,1.96875 -0.81312,0.62042 -1.69015,1.23514 -2.5625,1.9375 -0.87235,0.70236 -1.73985,1.50043 -2.53125,2.46875 -0.7914,0.96832 -1.49221,2.11295 -2.0625,3.53125 -0.78449,3.28628 -1.6491,6.40757 -2.53125,9.4375 0.62995,0.014 1.36415,0.0162 2.15625,-0.125 0.95038,-0.16945 1.88811,-0.43787 2.65625,-1 0.38407,-0.28106 0.7135,-0.65689 1,-1.09375 0.2865,-0.43686 0.53324,-0.96267 0.6875,-1.59375 0.35099,-1.4359 0.445,-2.32761 0.5,-2.96875 0.0548,-0.64114 0.0248,-0.96871 0.0937,-1.4375 0.0689,-0.46879 0.47112,-1.06599 0.875,-1.375 0.40388,-0.30901 0.87727,-0.57479 1.71875,-1.125 l 0.0625,-0.0625 0.0313,0 c 0.9872,-0.52651 2.0657,-1.09183 3.1875,-1.875 1.1218,-0.78317 2.30077,-1.77015 3.4375,-3.09375 1.13673,-1.3236 2.238,-3.00301 3.25,-5.1875 0.506,-1.09225 0.99593,-2.32176 1.4375,-3.6875 0.44157,-1.36574 0.83252,-2.85317 1.1875,-4.53125 0.72327,-3.41906 1.23261,-6.05453 1.53125,-8.0625 0.29864,-2.00797 0.37794,-3.38526 0.21875,-4.375 -0.15919,-0.98976 -0.46865,-1.58295 -1.125,-2.21875 -0.41957,-0.40643 -1.03794,-0.85024 -1.78125,-1.3125 l -0.125,0.21875 -0.96875,-0.46875 c -0.42586,-0.2084 -0.81101,-0.32537 -1.21875,-0.34375 -0.40774,-0.0184 -0.8304,0.0358 -1.28125,0.1875 -0.90171,0.30332 -1.92281,0.99481 -2.9375,1.96875 -1.0147,0.97395 -2.04141,2.2549 -3.03125,3.6875 -0.98984,1.4326 -1.92445,3.02339 -2.8125,4.65625 -1.77609,3.2657 -3.30464,6.68626 -4.375,9.28125 -1.07036,2.59499 -1.6875,4.34375 -1.6875,4.34375 l -0.53135,1.5313 -0.71875,-0.65625 -1.71875,1.09375 c -0.37912,-0.59575 -1.03934,-1.31705 -1.8125,-2.03125 -0.77316,-0.7142 -1.67287,-1.4129 -2.5,-2.03125 -1.65427,-1.23669 -3.0625,-2.125 -3.0625,-2.125 0.52254,-0.31322 1.05633,-0.46296 1.71875,-0.40625 0.66242,0.0567 1.46708,0.33267 2.59375,0.875 -0.99763,-0.97231 -1.96676,-1.9355 -2.9375,-2.90625 l -0.75,-0.75 0.75,-0.75 c 0.11513,-0.11513 0.71431,-0.96244 1.375,-2.125 0.66068,-1.16257 1.47286,-2.69745 2.3125,-4.46875 0.82056,-1.73104 1.66106,-3.6735 2.46875,-5.71875 0.80769,-2.04525 1.5804,-4.17598 2.21875,-6.28125 -0.31233,-1.4534 -1.4897,-4.38704 -3.15625,-7.90625 -1.70677,-3.60415 -3.87599,-7.81983 -6,-11.812497 -3.94807,-7.421506 -7.45026,-13.558545 -7.96875,-14.46875 -1.83921,-0.285017 -3.60306,-0.710119 -5.21875,-1.15625 -1.61569,-0.446131 -3.087,-0.927239 -4.375,-1.40625 -2.576,-0.958021 -4.39099,-1.867367 -5.03125,-2.1875 -0.60913,-0.304564 -1.26045,-0.496222 -2.15625,-0.46875 -0.8958,0.02747 -2.05424,0.289518 -3.59375,0.875 -0.0556,0.02112 -0.0684,0.0092 -0.125,0.03125 -1.48996,0.774852 -3.01304,1.244596 -4.1875,1.53125 -1.17446,0.286654 -2,0.375 -2,0.375 l -3.46875,0.4375 2.28125,-1.875 c -0.33951,0.05756 -0.69678,0.13413 -1.03125,0.1875 -2.22284,0.35471 -4.125,0.53125 -4.125,0.53125 l -3.9375,0.375 3.21875,-2.28125 c 0,0 1.86414,-1.046886 2.96875,-1.75 z m 18.21875,142.718747 c -0.19005,0.20472 -0.40939,0.40046 -0.59375,0.59375 l -0.0313,0.0313 0,0.0313 c -1.01463,0.94584 -2.01607,1.71458 -2.96875,2.28125 -0.95268,0.56667 -1.87264,0.93989 -2.75,1.1875 -0.87736,0.24761 -1.7113,0.3551 -2.5,0.34375 -0.7887,-0.0113 -1.53207,-0.13354 -2.21875,-0.34375 -1.36684,-0.41841 -2.52996,-1.12673 -3.46875,-1.8125 -0.93879,-0.68577 -1.64543,-1.36429 -2.125,-1.6875 -0.008,-0.004 -0.0242,0.004 -0.0313,0 -0.0663,-0.0414 -0.1214,-0.0832 -0.1875,-0.125 0.16278,2.8053 0.39389,7.92879 0.28125,13.71875 -0.0721,3.70818 -0.30049,7.58884 -0.78125,11.1875 1.14297,0.31939 3.51651,0.94738 6.375,1.1875 1.94593,0.16345 4.07579,0.15331 6.0625,-0.21875 0.99336,-0.18603 1.94413,-0.46 2.84375,-0.84375 0.89962,-0.38375 1.73216,-0.87598 2.46875,-1.5 -0.3367,-3.27886 -0.52835,-6.87923 -0.59375,-10.34375 -0.11611,-6.15369 0.0848,-10.79902 0.21875,-13.6875 z"
         id="path3000"
         style="fill:#fccd92;fill-opacity:1;stroke:none" />
      <path
         d="m 140.44643,116.07589 c -0.32647,0 -0.65295,0.0626 -1,0.25 -0.34705,0.18739 -0.69287,0.48339 -1.0625,0.90625 -0.73926,0.84572 -1.50351,2.16281 -2.125,3.84375 -0.62149,1.68093 -1.11933,3.71777 -1.46875,6 -0.34942,2.28223 -0.5625,4.82833 -0.5625,7.46875 0,2.64042 0.21308,5.13216 0.5625,7.40625 0.34942,2.27409 0.84726,4.31906 1.46875,6 0.62149,1.68094 1.38574,2.99803 2.125,3.84375 0.36963,0.42286 0.71545,0.71886 1.0625,0.90625 0.34705,0.18739 0.67353,0.25 1,0.25 0.32647,0 0.66109,-0.0626 1,-0.25 0.33891,-0.18739 0.69287,-0.48339 1.0625,-0.90625 0.73927,-0.84572 1.50351,-2.16281 2.125,-3.84375 0.62149,-1.68094 1.11933,-3.72591 1.46875,-6 0.34942,-2.27409 0.53125,-4.76583 0.53125,-7.40625 0,-2.64042 -0.18183,-5.18652 -0.53125,-7.46875 -0.34942,-2.28223 -0.84726,-4.31906 -1.46875,-6 -0.62149,-1.68094 -1.38573,-2.99803 -2.125,-3.84375 -0.36963,-0.42286 -0.72359,-0.71886 -1.0625,-0.90625 -0.33891,-0.18739 -0.67353,-0.25 -1,-0.25 z"
         id="path3036"
         style="fill:#ffffff;fill-opacity:1;stroke:none" />
      <path
         d="m 163.91518,115.51339 c -0.32647,0 -0.6842,0.0939 -1.03125,0.28125 -0.34705,0.18739 -0.69286,0.45214 -1.0625,0.875 -0.73926,0.84572 -1.50351,2.16281 -2.125,3.84375 -0.62149,1.68093 -1.11933,3.74902 -1.46875,6.03125 -0.34942,2.28223 -0.53125,4.79708 -0.53125,7.4375 0,2.64042 0.18183,5.16341 0.53125,7.4375 0.34942,2.27409 0.84726,4.28781 1.46875,5.96875 0.62149,1.68094 1.38574,2.99804 2.125,3.84375 0.36963,0.42286 0.71545,0.71886 1.0625,0.90625 0.34705,0.18739 0.70478,0.28125 1.03125,0.28125 0.32647,0 0.66109,-0.0939 1,-0.28125 0.33891,-0.18739 0.66162,-0.48339 1.03125,-0.90625 0.73927,-0.84571 1.50351,-2.16281 2.125,-3.84375 0.62149,-1.68094 1.11933,-3.69466 1.46875,-5.96875 0.34942,-2.27409 0.5625,-4.79708 0.5625,-7.4375 0,-2.64042 -0.21308,-5.15527 -0.5625,-7.4375 -0.34942,-2.28223 -0.84726,-4.35032 -1.46875,-6.03125 -0.62149,-1.68094 -1.38573,-2.99803 -2.125,-3.84375 -0.36963,-0.42286 -0.69234,-0.68761 -1.03125,-0.875 -0.33891,-0.18739 -0.67353,-0.28125 -1,-0.28125 z"
         id="path3032"
         style="fill:#ffffff;fill-opacity:1;stroke:none" />
      <path
         d="m 148.8081,219.44033 c 0,0 9.59645,10.92228 18.37215,-0.3788 0.88388,3.15672 0.12626,2.20971 0.12626,2.20971 0,0 -7.57614,12.81631 -18.49841,0.25253 -0.25254,-1.32582 0,-2.08344 0,-2.08344 z"
         id="path3768"
         style="fill:#dd9e58;stroke:none" />
      <path
         d="m 157.11253,212.31062 c 0,0 0.62369,-4.12289 4.85371,-2.8602 -2.22307,0.59688 -4.23211,1.86274 -4.85371,2.8602 z"
         id="path3770"
         style="fill:#dd9e58;fill-opacity:1;stroke:none" />
      <path
         d="m 160.3125,157.09821 c 0,0 2.94643,5.66965 8.125,0.13393 0.17857,2.99107 -6.96429,8.79465 -8.125,-0.13393 z"
         id="path3772"
         style="fill:#dd9e58;fill-opacity:1;stroke:none" />
      <path
         d="m 137.26688,159.2717 c 0,0 1.9598,5.46756 6.34919,1.88901 0.17857,2.99107 -6.95625,4.45106 -6.34919,-1.88901 z"
         id="path3774"
         style="fill:#dd9e58;fill-opacity:1;stroke:none" />
      <path
         d="m 152.4699,208.39179 c 0,0 1.01015,-8.27062 13.13198,-3.4724 -5.80837,-0.12627 -9.59645,-1.19955 -13.13198,3.4724 z"
         id="path3776"
         style="fill:#dd9e58;fill-opacity:1;stroke:none" />
      <path
         d="m 148.03571,167.76786 c 0,0 0.83552,15.84363 8.97988,23.73544 -3.0936,-1.32582 -11.12273,-5.8783 -8.97988,-23.73544 z"
         id="path3778"
         style="fill:#dd9e58;fill-opacity:1;stroke:none" />
      <path
         d="m 148.52679,246.83036 c 0,0 11.20535,4.64285 19.64285,-1.16072 -0.0446,-2.23214 -0.0893,-2.23214 -0.0893,-2.23214 0,0 -6.38393,5.80357 -19.41965,1.96429 -0.17857,0.66964 -0.13392,1.42857 -0.13392,1.42857 z"
         id="path3780"
         style="fill:#dd9e58;fill-opacity:1;stroke:none" />
      <path
         d="m 193.12854,168.11196 c 0,0 9.59645,2.71478 9.59645,-8.90197 5.17703,-3.283 14.33154,-5.68211 16.47811,-28.03173 -2.77792,7.44987 -5.80837,20.45558 -16.41498,25.00127 -3.40926,2.02031 -2.38877,5.06962 -2.71478,6.18719 -0.41226,1.41321 -0.56821,3.8512 -6.9448,5.74524 z"
         id="path3782"
         style="fill:#dd9e58;fill-opacity:1;stroke:none" />
      <path
         d="m 213.75,134.24107 c 0,0 -1.02679,-5.35714 -4.59821,-2.27678 -3.57143,3.08035 -5.3125,7.09821 -5.3125,7.09821 0,0 1.51785,1.83036 3.03571,2.54464 -2.23214,-1.74107 2.1875,-11.29464 6.875,-7.36607 z"
         id="path3784"
         style="fill:#dd9e58;fill-opacity:1;stroke:none" />
      <path
         d="m 114.67081,168.68651 c 0,0 -6.71076,6.55965 -12.2666,-2.91053 C 99.626295,162.05104 90.219249,156.05326 85.610428,152.8334 82.958778,148.91906 80,139.64286 82.5,132.41071 c 1.160714,11.69643 2.889385,16.55585 5.267857,19.10715 3.155129,3.38439 13.169643,5.84821 16.116063,12.36607 2.2768,4.59822 5.41305,5.54267 10.78689,4.80258 z"
         id="path3786"
         style="fill:#dd9e58;fill-opacity:1;stroke:none" />
      <path
         d="m 136.06152,150.8342 c 0,0 3.65623,5.5122 8.04562,1.93365 -0.75893,4.01786 -6.82232,5.25463 -8.04562,-1.93365 z"
         id="path3788"
         style="fill:#dd9e58;fill-opacity:1;stroke:none" />
      <path
         d="m 176.25893,19.950893 c -0.64535,0.774161 -1.49886,1.715163 -2.5625,2.71875 -1.06364,1.003587 -2.33053,2.081334 -3.78125,3.1875 -1.51223,1.153077 -3.18853,2.267262 -4.90625,3.21875 -1.71772,0.951488 -3.50338,1.739047 -5.28125,2.21875 0.15218,0.577467 0.42612,1.396079 0.28125,2.3125 -0.0724,0.458211 -0.25586,0.948507 -0.59375,1.4375 -0.33789,0.488993 -0.83169,0.984946 -1.5625,1.46875 0,0 0.21121,-0.506903 0.28125,-1.40625 0.07,-0.899347 0.009,-2.200445 -0.53125,-3.78125 -0.25415,-0.743037 -0.62658,-1.557069 -1.15625,-2.40625 -0.52967,-0.849181 -1.21315,-1.73676 -2.09375,-2.65625 -0.8806,-0.91949 -1.97429,-1.858537 -3.28125,-2.8125 -1.30696,-0.953963 -2.84753,-1.9224 -4.65625,-2.875 -0.0927,0.797671 -0.19995,1.6809 -0.4375,2.65625 -0.23755,0.97535 -0.60068,2.054398 -1.21875,3.25 -0.4036,0.780735 -0.89452,1.587355 -1.53125,2.4375 -0.63673,0.850145 -1.41448,1.728271 -2.34375,2.65625 -0.92927,0.927979 -2.03128,1.892013 -3.3125,2.90625 -1.28122,1.014237 -2.74494,2.078581 -4.4375,3.1875 l -0.0313,0.03125 -0.0313,0 c -3.40167,1.902357 -6.82779,3.763477 -10.125,5.6875 -3.29721,1.924023 -6.46434,3.91671 -9.34375,6.09375 -1.4397,1.08852 -2.81725,2.211098 -4.09375,3.40625 -1.2765,1.195152 -2.45712,2.450547 -3.53125,3.78125 -1.07413,1.330703 -2.0424,2.754827 -2.875,4.25 -0.8326,1.495173 -1.54185,3.061438 -2.09375,4.75 0.0715,0.04344 0.1798,0.11296 0.25,0.15625 0.80666,0.501656 1.43467,0.842186 1.875,1.4375 0.22017,0.297657 0.3905,0.655404 0.5,1.125 0.1095,0.469596 0.17012,1.0407 0.15625,1.78125 0,0 -1.49409,-1.230098 -3.65625,-2.5625 -1.081081,-0.666201 -2.313632,-1.33382 -3.593751,-1.875 -1.280119,-0.54118 -2.588726,-0.961051 -3.8125,-1.09375 -2.773532,-0.300744 -5.643116,-0.798112 -8.03125,-1.5 -0.711415,-0.209089 -1.28373,-0.473531 -1.90625,-0.71875 0.407378,0.837699 0.923133,1.811098 1.21875,2.625 0.338154,0.931048 0.604625,1.88291 0.71875,2.90625 0.114125,1.02334 0.08212,2.116561 -0.09375,3.3125 -0.303733,2.065797 -0.26461,5.596981 -0.09375,8.65625 0.08544,1.529634 0.198499,2.914518 0.3125,4 0.05432,0.517257 0.13915,0.976413 0.1875,1.3125 0.824188,0.365096 1.754925,1.005929 2.4375,1.84375 0.341288,0.41891 0.62652,0.882822 0.78125,1.375 0.15473,0.492178 0.195098,1.026996 0.0625,1.5625 0,0 -0.625485,-0.791205 -2.15625,-1.78125 -0.765283,-0.495023 -1.747451,-1.020825 -2.96865,-1.46875 -1.221199,-0.447925 -2.663662,-0.84286 -4.40625,-1.03125 l -0.0625,0 -0.09375,-0.03125 c -1.803393,-0.434149 -3.366446,-0.878199 -4.71875,-1.34375 -1.352304,-0.465551 -2.477041,-0.933071 -3.40625,-1.4375 -0.163545,-0.08878 -0.253158,-0.22194 -0.40625,-0.3125 0.494136,2.473654 0.942861,4.898684 1.84375,8.125 0.62858,2.2511 1.354904,4.48039 2.125,6.4375 0.770096,1.95711 1.589681,3.627707 2.375,4.718747 0.04393,0.018 0.08182,0.0444 0.125,0.0625 0.696021,0.30212 1.40776,0.87502 1.90625,1.59375 0.249245,0.35936 0.453249,0.76926 0.5625,1.1875 0.109251,0.41824 0.1224,0.86555 0.03125,1.3125 0,0 -0.221428,-0.2772 -0.75,-0.6875 -0.528572,-0.4103 -1.354927,-0.9605 -2.5625,-1.46875 -1.055262,-0.44414 -2.426431,-0.84378 -4.09375,-1.0625 -1.667319,-0.21872 -3.631321,-0.24429 -5.9375,0 2.762304,2.82505 6.443893,6.64314 9.9375,10.84375 1.746804,2.10031 3.439233,4.29332 4.9375,6.5 1.498267,2.20668 2.819096,4.43903 3.78125,6.59375 0.541628,-0.22605 1.256633,-0.51353 2.15625,-0.65625 0.965872,-0.15323 2.126679,-0.20959 3.4375,0 1.310821,0.20959 2.770646,0.68572 4.3125,1.53125 l 0.09375,0.0625 0.09375,0.0937 c 1.495718,1.34615 3.101431,3.30375 4.71875,5.5625 1.617321,2.25875 3.239241,4.82695 4.718751,7.375 2.08637,3.59318 3.90478,7.0332 4.96875,9.6875 l 3.1875,-8.81245 c -0.28454,-0.37888 -2.11644,-2.7852 -4.25,-6.09375 -1.14735,-1.77924 -2.28486,-3.70744 -3.1875,-5.5 -0.45132,-0.89629 -0.83316,-1.76123 -1.125,-2.5625 -0.29184,-0.80127 -0.489,-1.56264 -0.53125,-2.28125 l 0,-0.15625 0.0313,-0.125 c 0.82334,-3.56781 3.43816,-11.55302 5.9375,-19.28125 1.24968,-3.86411 2.47294,-7.659437 3.40625,-10.749997 0.93331,-3.090551 1.55138,-5.54623 1.65625,-6.4375 l 0.125,-0.875 0.90625,-0.0625 c 1.55322,-0.05974 3.6906,-0.525239 6.09375,-1.21875 2.40315,-0.693511 5.04745,-1.615848 7.625,-2.625 5.15509,-2.018301 10.07085,-4.318091 12.34375,-5.5 1.24327,-0.646502 2.49409,-1.105966 3.6875,-1.40625 1.19341,-0.300284 2.32614,-0.45742 3.34375,-0.53125 2.03521,-0.14766 3.61761,0.0196 4.25,0.125 l 3.3125,0.5625 -3.0625,1.4375 c -0.55089,0.257084 -0.62672,0.406526 -1.1875,0.71875 1.68587,-0.33854 3.55491,-0.761197 4.125,-1.09375 l -1.40625,2.625 c 2.2953,-0.949227 3.93333,-1.804738 5.625,-2.25 0.84583,-0.222631 1.69873,-0.357865 2.65625,-0.34375 0.95752,0.01412 2.00572,0.175302 3.25,0.5 1.34443,0.799246 2.93589,1.509956 4.59375,2.15625 1.65786,0.646294 3.37838,1.233815 5.0625,1.78125 1.68412,0.547435 3.3268,1.059832 4.75,1.5625 1.4232,0.502668 2.6249,0.988006 3.5,1.5 -0.54315,-0.02262 -1.09052,-0.04737 -1.625,-0.09375 1.26049,2.228987 3.92362,6.934588 7.25,13.1875 2.13299,4.009567 4.26977,8.221297 6,11.874997 0.86512,1.82685 1.63543,3.5185 2.21875,4.96875 0.58332,1.45025 0.99891,2.68633 1.1875,3.65625 l 0.0625,0.21875 -0.0625,0.25 c -0.6621,2.22278 -1.48635,4.48259 -2.34375,6.625 -0.8574,2.14241 -1.7665,4.18889 -2.625,6 -0.85852,1.81111 -1.64939,3.40318 -2.34375,4.625 -0.44737,0.78723 -0.74949,1.17472 -1.09375,1.65625 2.497,2.47512 4.63649,4.57938 5.5,5.40625 0.33702,-0.91909 0.9706,-2.65482 1.90625,-4.84375 0.93565,-2.18893 2.16554,-4.82655 3.6875,-7.625 0.91478,-1.68203 1.89232,-3.33556 2.9375,-4.84375 1.04518,-1.50819 2.15508,-2.88906 3.3125,-4 0.57871,-0.55548 1.17115,-1.02946 1.78125,-1.4375 0.6101,-0.40804 1.24525,-0.7464 1.90625,-0.96875 0.99644,-0.33527 2.05533,-0.2975 3.09375,-0.0313 1.39645,-3.11628 4.61858,-9.47205 8.25,-15.84375 1.90463,-3.34185 3.86791,-6.555797 5.625,-9.124997 0.94645,-1.38388 1.75866,-2.546352 2.5625,-3.46875 -1.82569,0.0165 -3.58692,0.294517 -5.375,0.65625 -1.78808,0.361733 -3.60187,0.82453 -5.46875,1.25 -0.0592,-0.67883 0.0912,-1.603205 0.3125,-2.65625 0.22134,-1.053045 0.51568,-2.244874 0.8125,-3.46875 0.29682,-1.223876 0.58275,-2.496174 0.75,-3.6875 0.16725,-1.191326 0.22986,-2.294604 0.0625,-3.25 -0.0685,-1.296108 -0.26052,-2.678753 -0.59375,-4.09375 -0.33323,-1.414997 -0.81595,-2.887326 -1.46875,-4.40625 -0.6528,-1.518924 -1.47282,-3.07961 -2.5,-4.6875 -1.02718,-1.60789 -2.26237,-3.255606 -3.71875,-4.9375 -0.45896,1.447921 -0.93792,2.960967 -1.34375,4.0625 -0.22201,0.60086 -0.58005,1.381268 -1.09375,2.09375 -0.5137,0.712482 -1.18159,1.387785 -2.03125,1.8125 -0.45559,-0.882473 -0.71555,-1.833984 -0.9375,-2.8125 -0.22195,-0.978516 -0.40386,-1.998248 -0.65625,-3.03125 -0.31233,-1.405468 -0.80157,-2.973847 -1.59375,-4.5625 -0.39609,-0.794326 -0.87838,-1.587905 -1.4375,-2.375 -0.55912,-0.787095 -1.18664,-1.567988 -1.9375,-2.3125 -1.20278,2.773752 -2.54105,5.068004 -3.5,6.21875 l -2.3125,2.8125 0.5,-3.59375 c 0.21069,-1.519944 0.22745,-4.045164 -0.1875,-7.15625 -0.20748,-1.555543 -0.51601,-3.256751 -0.96875,-5.0625 -0.45274,-1.805749 -1.05525,-3.698681 -1.8125,-5.65625 -0.73712,-1.905339 -1.63736,-3.873447 -2.7188,-5.8437 -1.08144,-1.970253 -2.34006,-3.949092 -3.8125,-5.90625 -1.47244,-1.957158 -3.15244,-3.883897 -5.0625,-5.75 -1.91006,-1.866103 -4.0432,-3.677912 -6.4375,-5.375 z m -16.75,73.6875 c -0.48805,0.0613 -0.97303,0.3254 -1.5,0.78125 -0.74446,0.644 -1.5278,2.06103 -2.25,3.90625 0.81125,-0.36873 1.61734,-0.79807 2.71875,-1 0.97728,-0.17917 2.05448,-0.19535 3.1875,0 1.13302,0.19535 2.30181,0.61336 3.46875,1.28125 -0.63986,-1.10309 -1.30666,-2.12521 -2,-2.9375 -0.69334,-0.81229 -1.40352,-1.4139 -2.09375,-1.71875 -0.55866,-0.24677 -1.0432,-0.3738 -1.53125,-0.3125 z m -26.78125,3.84375 c -0.66256,0.0144 -1.25975,0.13833 -1.84375,0.4375 -0.584,0.29917 -1.13756,0.75837 -1.65625,1.46875 -0.35823,0.49063 -0.68836,1.160337 -0.96875,1.968747 -0.28039,0.80841 -0.50504,1.75069 -0.71875,2.78125 1.06344,-0.87232 2.46725,-1.81551 4.28125,-2.5625 0.907,-0.37349 1.91341,-0.70294 3.03125,-0.9375 1.11784,-0.23456 2.34335,-0.38235 3.6875,-0.40625 -0.90226,-0.757247 -1.88863,-1.460847 -2.875,-1.968747 -0.98637,-0.5079 -1.98827,-0.8019 -2.9375,-0.78125 z"
         id="path3020"
         style="fill:#ffd14d;fill-opacity:1;stroke:none" />
      <path
         d="m 168.41393,150.39225 c 0,0 -3.65623,5.5122 -8.04562,1.93365 0.75893,4.01786 6.82232,5.25463 8.04562,-1.93365 z"
         id="path3790"
         style="fill:#dd9e58;fill-opacity:1;stroke:none" />
      <path
         d="m 126.3322,106.11385 c 0,0 7.26047,-6.439727 14.71035,-5.05077 -3.40927,-1.515226 -10.16466,-3.977473 -14.71035,5.05077 z"
         id="path3792"
         style="fill:#fcba38;stroke:none" />
      <path
         d="m 154.23767,99.48472 c 0,0 7.57614,-3.598669 12.37437,1.01015 -1.76777,-3.09359 -6.566,-7.82868 -12.37437,-1.01015 z"
         id="path3794"
         style="fill:#fcba38;fill-opacity:1;stroke:none" />
      <path
         d="m 124.75384,109.90192 c 0,0 2.77792,-10.354066 18.49842,-7.57615 -8.08122,1.26269 -12.2481,1.07329 -18.49842,7.57615 z"
         id="path3796"
         style="fill:#dd9e58;fill-opacity:1;stroke:none" />
      <path
         d="m 167.2664,102.5596 c 0,0 -4.86136,-8.775702 -14.64722,-0.12628 2.90419,-1.01015 7.51301,-5.303298 14.64722,0.12628 z"
         id="path3798"
         style="fill:#dd9e58;fill-opacity:1;stroke:none" />
      <path
         d="m 103.66691,124.35973 c 0.3788,-1.13643 11.36421,-36.112957 11.36421,-36.112957 0,0 16.92006,-3.030458 27.02158,-10.227795 7.95495,-1.38896 9.47018,0 9.47018,0 l -4.04061,2.65165 5.68211,-0.378807 0.12627,1.641498 7.44987,-3.156727 4.9245,0.757615 c 0,0 11.36421,5.303301 15.65736,5.42957 1.38896,4.04061 16.41498,30.809653 16.54125,34.218913 -5.3033,-8.58629 -19.64934,-32.754119 -19.64934,-32.754119 0,0 -6.78572,-0.178571 -15.53572,-5 -6.60714,2.5 -11.42857,4.464286 -15.89286,3.035714 1.07143,-1.428571 1.07143,-1.428571 1.07143,-1.428571 0,0 -4.10714,1.428571 -8.03571,0.892857 1.07143,-1.071428 1.60714,-1.785714 1.60714,-1.785714 0,0 -11.96428,8.392857 -23.75,8.928571 -2.67857,8.75 -8.02333,27.290882 -14.01166,33.288302 z"
         id="path3800"
         style="fill:#dd9e58;fill-opacity:1;stroke:none" />
      <path
         d="m 108.97021,152.644 c 0.3788,-0.50508 4.29314,-11.36422 4.29314,-11.36422 0,0 -8.62049,-11.99407 -9.33478,-16.10121 2.85714,-10.35714 11.25,-36.607142 11.25,-36.607142 0,0 21.25,-4.821428 26.96429,-9.821428 7.67857,-1.607143 8.92857,-1.071429 8.92857,-1.071429 l -1.78572,2.678572 3.92858,-0.535715 -0.17858,2.321429 c 0,0 6.60715,-4.821429 12.14286,-3.214286 5.17857,2.5 8.57143,4.464286 16.07143,5.892857 1.60714,3.571429 16.96429,33.214282 16.78571,34.821432 -1.96428,5 -8.92857,18.92857 -8.92857,18.92857 l 7.14286,6.78571 -3.92857,-7.5 c 0,0 6.07143,-10 8.92857,-19.64285 -5,-11.25 -16.42857,-31.250005 -16.42857,-31.250005 l 2.5,-1.071428 c 0,0 -19.28572,-6.25 -21.25,-9.464286 -3.75,-0.535714 -8.92857,1.25 -8.92857,1.25 L 159.46429,75 c 0,0 -14.10715,-4.107143 -21.42858,1.964285 -9.46428,4.285715 -17.67857,7.857143 -26.96428,8.75 -0.71429,4.821429 -8.92857,36.250005 -10.53572,38.750005 1.96429,5.53571 6.25,15 8.92858,17.85714 -0.35715,4.28571 -0.45245,8.85942 -0.49408,10.32257 z"
         id="path3802"
         style="fill:#fcba38;fill-opacity:1;stroke:none" />
      <path
         d="m 83.571429,127.67857 c 0,0 -8.214286,-16.42857 -20,-25.71428 5.357143,-1.25 11.607143,0.53571 11.607143,0.53571 0,0 -6.109392,-16.65234 -6.109392,-21.198026 4.293149,1.136421 5.934647,3.030457 12.2481,3.661803 2.272843,1.010152 2.525381,0.883883 2.525381,0.883883 L 83.716392,69.180143 c 0,0 -1.26269,-6.565991 -2.904188,-8.333758 3.914341,0.631345 7.449875,2.272843 7.449875,2.272843 0,0 6.565991,0.252538 11.616754,3.030458 C 101.14152,61.856537 103.03571,51.071428 130.89286,37.5 c 9.46428,-5.357143 15.17857,-12.142857 14.64285,-18.214286 3.21429,0.357143 10,6.25 13.03572,11.071429 C 162.85714,29.464285 172.67857,23.75 176.25,18.75 c 4.10714,2.142857 21.42857,16.428571 22.67857,40.357143 C 202.5,53.392857 202.5,53.928571 202.5,53.928571 c 0,0 5,1.428572 7.14286,14.642857 2.5,-3.571428 3.75,-8.214285 3.75,-8.214285 0,0 14.10714,11.785714 7.67857,31.071428 7.32143,-0.714286 11.78571,-1.071428 11.78571,-1.071428 0,0 -13.92857,20.178567 -17.5,30.357147 C 214.46429,113.57143 226.25,95 226.25,95 l -9.10714,2.321428 c 0,0 6.60714,-22.5 -2.85715,-30.178571 -4.82142,7.321428 -8.03571,8.035714 -8.03571,8.035714 0,0 -0.53571,-11.785714 -3.03571,-15.178571 -3.39286,6.25 -9.10715,8.035714 -9.10715,8.035714 0,0 2.14286,-32.5 -17.5,-43.928571 C 166.25,33.75 162.32143,34.285714 162.32143,34.285714 c 0,0 -1.32837,3.705969 -6.5054,6.736427 -0.12627,-5.050763 -1.38896,-11.364216 -6.9448,-14.394674 -4.54569,10.732871 -22.98097,18.687822 -22.98097,18.687822 0,0 -15.27856,8.20749 -20.07678,19.950513 0,4.293148 1.26269,7.071068 0,9.722718 -1.6415,-1.26269 -8.460028,-6.565991 -17.425132,-8.207489 -0.252538,7.702413 -0.378807,17.298862 -0.378807,17.298862 0,0 5.050762,4.16688 3.788072,11.364216 -4.798225,-3.914341 -10.354064,-7.071067 -18.814092,-8.965103 2.020306,5.050762 6.060916,14.647214 6.060916,14.647214 0,0 3.535534,2.0203 3.282995,8.83883 -2.777919,-1.51523 -8.965103,-3.78807 -8.965103,-3.78807 0,0 10.85914,15.40483 10.73287,21.59201 0,0.12627 -0.52377,-0.0904 -0.52377,-0.0904 z"
         id="path3804"
         style="fill:#ffec92;stroke:none" />
      <path
         d="m 126.58474,104.53548 c 0,0 2.65165,-9.785851 12.81631,-4.798222 -2.52538,-2.462247 -10.48033,-6.944799 -12.81631,4.798222 z"
         id="path3810"
         style="fill:#ffec92;stroke:none" />
      <path
         d="m 175.86124,17.094542 -0.58621,0.814182 c -0.8152,1.124424 -3.42514,3.83131 -6.64372,6.285482 -2.94954,2.249026 -6.45517,4.291762 -9.60734,5.11306 -1.62653,-3.509961 -5.28473,-7.61391 -12.96177,-11.333408 l -1.27013,-0.58621 -0.22797,1.335257 c -0.359,2.046311 -0.26517,4.074001 -1.66093,6.773991 -1.39048,2.689788 -4.3109,6.129435 -10.8449,10.421524 -0.0248,0.01628 -0.0402,0.01626 -0.0651,0.03257 -13.38676,7.482819 -27.95965,14.476773 -32.827801,28.691758 -1.899738,-0.989263 -4.045634,-1.84849 -6.220376,-2.084307 -2.687524,-0.291418 -5.452177,-0.753465 -7.653307,-1.400392 -2.753171,-1.015856 -3.12913,-1.369384 -5.959809,-1.204989 0.01865,0.03826 0.01402,0.05976 0.03257,0.0977 0.0073,0.01285 0.02454,0.01982 0.03257,0.03257 1.131507,2.316137 2.093684,4.078536 2.670516,5.666704 0.590244,1.625083 0.827292,3.095958 0.521076,5.178195 -0.354165,2.408317 -0.30483,5.960729 -0.130269,9.086266 0.08733,1.562769 0.207326,3.00914 0.325673,4.136043 0.01339,0.127433 0.01761,0.206464 0.03257,0.325672 -1.098231,-0.326826 -2.309347,-0.622423 -3.680101,-0.781614 -6.12618,-0.767071 -9.35592,-4.172845 -11.887051,-4.364018 0.001,0.0096 -0.001,0.023 0,0.03257 0.402907,2.451025 1.373776,7.191591 2.703083,11.952185 0.981457,3.51484 2.123969,7.0133 3.484697,9.672477 -1.639118,-0.35204 -3.569091,-0.54068 -5.82954,-0.45594 -1.304014,0.0489 -2.710065,0.19352 -4.233744,0.45594 l -1.954036,0.32567 1.367825,1.43296 c 5.288298,5.41729 16.23389,16.63797 19.931165,25.17449 -0.769442,1.66329 -5.582519,13.18437 2.344843,25.56531 l 0.0977,0.16283 0.130269,0.0976 c 4.180021,3.42001 8.001125,5.4064 10.030717,6.51345 0.894375,0.48785 2.356327,1.57585 3.582399,2.73565 1.226071,1.15981 2.185021,2.5085 2.312281,3.09389 0.1885,0.86714 0.71229,1.70431 1.49809,2.63795 0.7858,0.93365 1.83595,1.88499 3.12646,2.57282 2.25837,1.2037 5.33641,1.46328 8.30465,-0.65135 1.62784,4.08583 3.77604,9.06472 6.48088,14.4273 6.24503,12.38132 15.2759,26.5763 27.1611,35.00981 0.11391,1.59375 0.50009,7.82037 0.35824,15.11121 -0.0817,4.19712 -0.35995,8.64609 -0.97702,12.50583 -0.61707,3.85973 -1.61765,7.12062 -2.93105,8.89086 -2.98355,4.02129 -5.08619,5.999 -7.00196,7.84871 -1.91577,1.8497 -3.67283,3.62456 -5.69927,7.00196 3.1956,-1.67508 5.31587,-3.71551 7.1648,-5.50387 1.79273,-1.73091 3.90155,-3.76685 6.70885,-7.4579 1.34615,0.6268 4.48346,1.9612 8.36979,2.57281 5.0116,0.78871 11.41033,0.37788 16.77214,-4.23374 8.08744,7.72693 11.14121,10.51325 15.69742,11.95218 0,0 -9.46683,-7.62891 -14.3296,-13.51541 -0.94435,-1.14317 -1.85642,-4.21096 -2.37741,-7.97898 -0.52098,-3.76802 -0.76496,-8.26888 -0.84675,-12.60353 -0.15616,-8.27727 0.22321,-15.48184 0.26054,-16.15336 7.31684,-8.65939 17.46605,-24.48626 24.84882,-48.81833 0.8293,0.0488 1.94985,0.0527 3.15903,-0.16284 2.34308,-0.41775 5.12936,-1.846 5.95981,-5.24333 0.37275,-1.5249 0.52196,-2.57307 0.58621,-3.32186 0.0626,-0.73011 0.0534,-1.16382 0.0651,-1.27012 0.0168,-0.008 0.033,-0.008 0.0651,-0.0326 0.20092,-0.15373 0.71915,-0.48047 1.53066,-1.00958 0.0181,-0.009 0.0468,-0.0228 0.0651,-0.0326 1.96846,-1.04994 4.62591,-2.48784 7.13223,-5.40617 2.52962,-2.94544 4.87552,-7.35635 6.35062,-14.32959 1.44849,-6.84739 2.26203,-10.52999 1.82377,-13.25488 -0.21914,-1.36245 -0.84001,-2.46459 -1.75864,-3.35443 -0.63605,-0.61613 -1.4665,-1.14644 -2.37741,-1.6935 1.46623,-3.17213 4.61471,-9.3465 8.01155,-15.30661 1.88714,-3.31117 3.80069,-6.498207 5.50387,-8.988557 1.70318,-2.49036 3.34975,-4.287452 3.90807,-4.59199 l 2.40998,-1.30269 -2.67052,-0.651345 c -2.28835,-0.544848 -5.43103,-0.202626 -8.27208,0.423374 -1.21441,0.267583 -2.27797,0.608617 -3.25673,0.977018 1.15078,-2.814281 2.15765,-6.275911 1.92147,-10.747196 -0.31925,-6.044067 -2.85082,-13.291017 -9.96558,-20.875615 l -1.23756,-1.302691 -0.52108,1.693498 c -0.72421,2.304329 -1.36121,4.308868 -1.92146,5.82954 -0.14263,0.387133 -0.2191,0.394803 -0.35824,0.71648 -0.1038,-0.763106 -0.13501,-1.37287 -0.35824,-2.377411 -0.75269,-3.387097 -2.43659,-7.886433 -6.67629,-11.431109 l -1.13986,-0.944451 -0.52107,1.367826 c -0.56454,1.467789 -1.2149,2.733971 -1.82377,3.875504 -0.13781,-3.868694 -0.97927,-9.07995 -3.22416,-14.883239 C 193.05988,33.91536 187.1617,24.78475 176.7079,17.648018 l -0.84675,-0.553643 z m 0.39081,2.865919 c 9.57721,6.788351 15.094,15.240664 18.04226,22.862219 3.029,7.830276 3.385,14.83954 2.96362,17.879427 l -0.4885,3.582399 2.31227,-2.800784 c 0.95895,-1.150746 2.28192,-3.446596 3.4847,-6.220348 3.00345,2.978048 4.35813,6.438168 4.98279,9.249103 0.50477,2.066004 0.68461,4.064594 1.59579,5.82954 1.69932,-0.84943 2.68244,-2.673785 3.12646,-3.875504 0.40583,-1.101533 0.8763,-2.622987 1.33526,-4.070908 5.8255,6.727574 7.99824,12.922966 8.27208,18.107398 0.66946,3.821584 -2.1582,10.344133 -1.92146,13.05947 3.73377,-0.850931 7.19351,-1.855892 10.84489,-1.888899 -0.80384,0.922398 -1.62636,2.068249 -2.57281,3.452129 -1.75709,2.5692 -3.72951,5.809547 -5.63414,9.151397 -3.63142,6.3717 -6.84306,12.71141 -8.23951,15.82769 -1.03842,-0.26625 -2.09745,-0.30267 -3.09389,0.0326 -1.32201,0.44471 -2.52268,1.29903 -3.6801,2.40998 -2.31485,2.22188 -4.42335,5.46167 -6.25292,8.82573 -3.04392,5.59689 -4.92754,10.63507 -5.60157,12.47326 -0.86351,-0.82687 -3.00686,-2.93105 -5.50386,-5.40617 0.34426,-0.48153 0.65991,-0.8737 1.10728,-1.66093 0.69436,-1.22182 1.48633,-2.81344 2.34485,-4.62455 1.71701,-3.62222 3.62601,-8.15796 4.95022,-12.60353 l 0.0651,-0.26054 -0.0651,-0.22797 c -0.37719,-1.93983 -1.65676,-4.94405 -3.387,-8.59776 -1.73023,-3.6537 -3.89195,-7.87748 -6.02494,-11.887047 -3.32638,-6.252912 -5.96944,-10.960752 -7.22993,-13.189739 0.53448,0.04638 1.08521,0.07503 1.62836,0.09765 -3.50041,-2.047976 -12.53428,-3.804977 -17.912,-7.001961 -4.97711,-1.298792 -6.95992,0.182425 -11.55051,2.080879 l 1.42209,-2.601949 c -0.57009,0.332553 -2.45017,0.736179 -4.13604,1.074719 0.56078,-0.312224 0.6541,-0.459395 1.20499,-0.716479 l 3.06132,-1.43296 -3.32186,-0.553643 c -0.63239,-0.105397 -2.19853,-0.277929 -4.23374,-0.130269 -2.03521,0.147659 -4.54799,0.628464 -7.03453,1.921468 -2.2729,1.181909 -7.1879,3.485567 -12.34299,5.503868 -5.15509,2.018304 -10.63694,3.723453 -13.74339,3.842936 l -0.87932,0.06513 -0.13026,0.879316 c -0.10487,0.89127 -0.72762,3.357763 -1.66093,6.448314 -0.93331,3.09056 -2.16989,6.883087 -3.41957,10.747197 -2.49934,7.72823 -5.1039,15.71201 -5.92724,19.27982 l -0.0326,0.13027 0,0.16283 c 0.0845,1.43722 0.75829,3.02739 1.66093,4.81996 0.90264,1.79256 2.04424,3.72463 3.19159,5.50387 2.13356,3.30855 3.94921,5.71119 4.23375,6.09007 l -3.19159,8.82573 c -1.06397,-2.6543 -2.86386,-6.11186 -4.95023,-9.70504 -2.95901,-5.09609 -6.453066,-10.23691 -9.444502,-12.9292 l -0.0977,-0.0976 -0.0977,-0.0651 c -3.083708,-1.69107 -5.819264,-1.83712 -7.751009,-1.53066 -0.899617,0.14272 -1.607811,0.42529 -2.149439,0.65134 -3.848617,-8.61886 -13.136435,-18.28684 -18.661042,-23.93693 4.612359,-0.48859 7.920192,0.18643 10.030717,1.07472 2.415147,1.0165 3.321861,2.14944 3.321861,2.14944 0.364602,-1.78779 -1.115637,-3.46668 -2.507679,-4.07091 -0.04318,-0.0181 -0.08634,-0.0471 -0.130269,-0.0651 -1.570638,-2.182067 -3.237123,-6.668367 -4.494282,-11.170563 -0.900889,-3.226316 -1.329631,-5.635593 -1.823767,-8.109247 0.153092,0.09056 0.227262,0.204321 0.390807,0.293105 1.858418,1.008858 4.535031,1.932485 8.141816,2.800783 l 0.06513,0.03262 0.06513,0 c 3.485176,0.37678 5.862003,1.485067 7.392769,2.475112 1.530765,0.990045 2.149439,1.791199 2.149439,1.791199 0.53039,-2.142014 -1.640917,-4.057193 -3.289294,-4.787386 -0.04835,-0.336087 -0.108519,-0.785434 -0.162836,-1.302691 -0.114001,-1.085482 -0.240237,-2.476139 -0.325673,-4.005773 -0.17086,-3.059269 -0.206033,-6.597095 0.0977,-8.662892 0.351748,-2.391878 0.05753,-4.358252 -0.618778,-6.220347 -0.295617,-0.813902 -0.830178,-1.767682 -1.237556,-2.605381 0.62252,0.245219 1.210054,0.50739 1.921469,0.716479 2.388134,0.701888 5.238014,1.19735 8.011546,1.498094 2.447548,0.265397 5.263172,1.63122 7.425332,2.963621 2.16216,1.332402 3.64753,2.572814 3.64753,2.572814 0.0555,-2.962201 -0.92691,-3.360701 -2.54024,-4.364013 -0.0702,-0.04329 -0.15644,-0.08683 -0.22797,-0.130269 4.41516,-13.508496 18.43949,-20.365851 32.04618,-27.975279 l 0.0326,0 0.0326,-0.03257 c 6.77024,-4.435675 10.01212,-8.0802 11.62651,-11.203139 1.23613,-2.391203 1.47558,-4.299332 1.66093,-5.894674 7.23489,3.810401 10.15398,7.77505 11.17058,10.747196 1.08141,3.16161 0.26053,5.178195 0.26053,5.178195 2.92325,-1.935218 2.1933,-4.055827 1.88894,-5.210762 3.55575,-0.959405 7.13653,-3.132579 10.16099,-5.438733 2.90143,-2.212332 5.05992,-4.346353 6.35062,-5.894674 z m -27.64961,58.327968 c -1.10461,0.703114 -2.96362,1.758633 -2.96362,1.758633 l -3.22416,2.279708 3.94064,-0.390807 c 0,0 1.9132,-0.166366 4.13604,-0.521076 0.33447,-0.05337 0.67008,-0.137841 1.00959,-0.195404 l -2.27971,1.888901 3.4847,-0.423374 c 0,0 3.20787,-0.371765 6.18778,-1.921469 0.0566,-0.02202 0.0747,-0.01145 0.13027,-0.03257 3.07901,-1.170964 4.51358,-0.999936 5.73184,-0.390807 1.28053,0.640266 7.26584,3.582183 14.6227,4.722253 0.51849,0.910205 4.03091,7.07093 7.97898,14.492436 2.12401,3.992667 4.2856,8.185197 5.99237,11.789347 1.66655,3.51921 2.8467,6.46044 3.15903,7.91384 -1.2767,4.21054 -3.04857,8.55523 -4.68969,12.01732 -0.83964,1.7713 -1.65159,3.29915 -2.31227,4.46172 -0.66069,1.16256 -1.2527,2.00174 -1.36783,2.11687 l -0.74905,0.74905 0.74905,0.74904 c 0.97074,0.97075 1.93342,1.92618 2.93105,2.89849 -2.25333,-1.08465 -3.2538,-1.08237 -4.29887,-0.45594 0,0 1.40705,0.88018 3.06132,2.11687 1.65427,1.23669 3.54065,2.87941 4.29888,4.07091 l 1.72606,-1.10729 0.71648,0.68391 0.52108,-1.53066 c 0,0 2.50534,-7.11427 6.05751,-13.64568 1.77609,-3.26571 3.83271,-6.38933 5.86211,-8.33722 1.01469,-0.97394 2.02934,-1.65072 2.93105,-1.95404 0.90171,-0.30331 1.65595,-0.28654 2.50768,0.13027 l 0.97702,0.48851 0.0977,-0.22797 c 0.74331,0.46226 1.37163,0.89626 1.7912,1.30269 0.65635,0.6358 0.98066,1.22482 1.13985,2.21458 0.31838,1.97949 -0.3121,5.60256 -1.75863,12.44069 -1.41991,6.7123 -3.62121,10.77052 -5.89468,13.41771 -2.27346,2.64719 -4.63675,3.92977 -6.61115,4.98279 l -0.0326,0 -0.0651,0.0326 c -0.84148,0.55021 -1.32218,0.83085 -1.72606,1.13986 -0.40388,0.30901 -0.77781,0.89903 -0.84675,1.36782 -0.0689,0.46879 -0.0428,0.79182 -0.0976,1.43296 -0.055,0.64114 -0.17008,1.56029 -0.52107,2.99619 -0.61705,2.5243 -2.4307,3.3412 -4.33145,3.6801 -0.7921,0.14123 -1.51949,0.14427 -2.14944,0.13027 0.88215,-3.02993 1.72319,-6.15823 2.50768,-9.44451 2.28117,-5.6732 6.89192,-7.01045 9.3468,-9.90044 -3.44454,1.58262 -5.47043,2.49786 -7.09966,3.74523 -1.62923,1.24737 -2.71891,2.78699 -4.13604,5.24333 l -0.0976,0.13027 -0.0326,0.13027 c -8.1386,34.21911 -22.14415,54.21497 -30.15729,62.62685 -0.007,0.006 -0.0253,-0.006 -0.0326,0 -0.004,0.005 0.004,0.0276 0,0.0326 -3.6846,3.4194 -6.25523,3.60096 -8.33722,2.96363 -2.08928,-0.63958 -3.66641,-2.28144 -5.08049,-3.22416 l 0,-0.0326 -0.0326,0 c -12.46562,-7.77495 -22.21859,-22.73155 -28.78946,-35.75886 -6.57086,-13.02731 -9.96558,-24.06721 -9.96558,-24.06721 -1.34011,1.26554 0.24124,6.98471 0.84675,8.5652 -2.53908,2.11984 -4.69279,1.83451 -6.54602,0.84674 -1.00084,-0.53343 -1.87157,-1.32852 -2.50768,-2.0843 -0.63611,-0.75578 -0.99804,-1.55571 -1.04215,-1.75863 -0.33799,-1.55474 -1.57501,-2.88587 -2.93106,-4.16861 -1.356041,-1.28275 -2.885621,-2.40001 -4.038336,-3.02876 -2.046849,-1.11647 -5.607374,-3.02482 -9.574775,-6.25291 -7.209923,-11.45746 -2.838729,-21.74774 -2.116872,-23.2856 0.115283,-0.0724 0.828438,-0.52397 2.247141,-0.74904 1.511715,-0.23982 3.663593,-0.13002 6.285482,1.27012 2.585267,2.35907 6.077749,7.38601 8.956,12.34299 2.90309,4.99977 5.24869,10.1021 5.63413,11.95219 0.87663,0.15704 1.32507,0.19328 1.9866,0.42338 l 4.49429,-12.343 0.1954,-0.55364 -0.35824,-0.45594 c 0,0 -2.21652,-2.93408 -4.46171,-6.41575 -1.1226,-1.74085 -2.24472,-3.58951 -3.09389,-5.2759 -0.82878,-1.64587 -1.33125,-3.12548 -1.4004,-3.94064 0.78622,-3.33879 3.35419,-11.23496 5.82954,-18.88901 1.25058,-3.86689 2.47769,-7.660837 3.41957,-10.779767 0.83862,-2.777022 1.32593,-4.69725 1.56322,-6.090077 3.69832,-0.320805 8.69656,-1.885451 13.61312,-3.810369 5.23643,-2.050147 10.1914,-4.364195 12.57096,-5.601569 2.33671,-1.215085 4.618,-1.600354 6.51346,-1.693497 z m 11.30084,13.32001 c -0.22737,-0.0021 -0.45772,0.0031 -0.68391,0.03262 -0.90478,0.118274 -1.78546,0.491323 -2.57281,1.172422 -1.57472,1.362192 -2.81806,3.713142 -3.77781,7.360199 l -0.78161,3.02875 2.44254,-1.92146 c 0,0 1.82776,-1.429897 4.33145,-1.888907 2.50369,-0.459 5.53415,-0.10462 8.50006,3.908077 1.90555,-5.088377 -3.13353,-10.731526 -5.4713,-11.268273 -0.62782,-0.277286 -1.30448,-0.416747 -1.98661,-0.423375 z m -0.3908,2.019174 c 0.48805,-0.0613 0.972,0.0789 1.53066,0.32567 1.38046,0.6097 2.82374,2.45093 4.10347,4.65712 -2.33389,-1.33578 -4.72172,-1.62846 -6.67629,-1.27013 -1.10141,0.20193 -1.89183,0.60829 -2.70308,0.97702 0.7222,-1.84522 1.50268,-3.26407 2.24714,-3.90807 0.52697,-0.45585 1.01005,-0.72034 1.4981,-0.78161 z m -26.83543,1.75863 c -1.88509,0.041 -3.77536,0.92412 -5.14563,2.80078 -1.37026,1.876667 -2.26994,4.670227 -2.60538,8.695457 l -0.32567,3.84294 2.21457,-3.15903 c 0,0 4.33126,-6.38948 14.45987,-5.14562 l 2.50768,0.2931 -1.56323,-1.9866 c -2.12137,-2.727477 -5.77203,-5.422987 -9.54221,-5.341027 z m 0.0651,2.0843 c 1.89845,-0.0413 3.99244,1.25372 5.79697,2.768217 -5.3766,0.0956 -8.88087,2.16343 -11.00774,3.90807 0.42741,-2.06113 0.97703,-3.77356 1.6935,-4.754817 1.03739,-1.42076 2.19215,-1.89266 3.51727,-1.92147 z m 31.16687,15.860257 c -1.34208,0 -2.56043,0.75703 -3.54984,1.8889 -0.9894,1.13187 -1.82176,2.67167 -2.50767,4.52685 -1.37182,3.71035 -2.18201,8.7209 -2.18201,14.2319 0,5.51099 0.81019,10.48898 2.18201,14.19932 0.68591,1.85518 1.51827,3.39498 2.50767,4.52685 0.98941,1.13187 2.20776,1.8889 3.54984,1.8889 1.34207,0 2.52785,-0.75703 3.51726,-1.8889 0.98941,-1.13187 1.82178,-2.67167 2.50768,-4.52685 1.37183,-3.71034 2.18201,-8.68833 2.18201,-14.19932 0,-5.511 -0.81018,-10.52155 -2.18201,-14.2319 -0.6859,-1.85518 -1.51827,-3.39498 -2.50768,-4.52685 -0.98941,-1.13187 -2.17519,-1.8889 -3.51726,-1.8889 z m -23.44843,0.55364 c -1.34208,0 -2.56043,0.75703 -3.54983,1.88891 -0.98941,1.13187 -1.82177,2.67167 -2.50768,4.52684 -1.37182,3.71035 -2.18201,8.7209 -2.18201,14.2319 0,5.51099 0.81019,10.48898 2.18201,14.19933 0.68591,1.85517 1.51827,3.39497 2.50768,4.52684 0.9894,1.13188 2.20775,1.88891 3.54983,1.88891 1.34207,0 2.52785,-0.75703 3.51726,-1.88891 0.98941,-1.13187 1.82178,-2.67167 2.50768,-4.52684 1.37183,-3.71035 2.18201,-8.68834 2.18201,-14.19933 0,-5.511 -0.81018,-10.52155 -2.18201,-14.2319 -0.6859,-1.85517 -1.51827,-3.39497 -2.50768,-4.52684 -0.98941,-1.13188 -2.17519,-1.88891 -3.51726,-1.88891 z m 23.44843,1.62837 c 0.65294,0 1.31247,0.3267 2.05173,1.17242 0.73927,0.84572 1.49539,2.162 2.11688,3.84294 1.24298,3.36186 2.01917,8.16943 2.01917,13.45028 0,5.28084 -0.77619,10.05584 -2.01917,13.41771 -0.62149,1.68094 -1.37761,2.99722 -2.11688,3.84293 -0.73926,0.84572 -1.39879,1.17243 -2.05173,1.17243 -0.65294,0 -1.34504,-0.32671 -2.08431,-1.17243 -0.73926,-0.84571 -1.49538,-2.16199 -2.11687,-3.84293 -1.24299,-3.36187 -2.01917,-8.13687 -2.01917,-13.41771 0,-5.28085 0.77618,-10.08842 2.01917,-13.45028 0.62149,-1.68094 1.37761,-2.99722 2.11687,-3.84294 0.73927,-0.84572 1.43137,-1.17242 2.08431,-1.17242 z m -23.44843,0.55364 c 0.65294,0 1.31247,0.3267 2.05173,1.17242 0.73927,0.84572 1.49539,2.162 2.11688,3.84294 1.24298,3.36187 2.01917,8.16943 2.01917,13.45028 0,5.28085 -0.77619,10.05584 -2.01917,13.41771 -0.62149,1.68094 -1.37761,2.99722 -2.11688,3.84294 -0.73926,0.84572 -1.39879,1.17242 -2.05173,1.17242 -0.65294,0 -1.34504,-0.3267 -2.08431,-1.17242 -0.73926,-0.84572 -1.49538,-2.162 -2.11687,-3.84294 -1.24299,-3.36187 -2.01917,-8.13686 -2.01917,-13.41771 0,-5.28085 0.77618,-10.08841 2.01917,-13.45028 0.62149,-1.68094 1.37761,-2.99722 2.11687,-3.84294 0.73927,-0.84572 1.43137,-1.17242 2.08431,-1.17242 z m 70.47555,13.45028 c -0.42914,0.0351 -0.85654,0.1574 -1.23755,0.32567 -2.03207,0.89753 -3.55466,3.06737 -5.04793,5.04793 -0.71295,0.9456 -1.27265,1.67008 -1.66093,2.34484 -0.38827,0.67476 -0.64445,1.3805 -0.48851,2.14944 0.15595,0.76894 0.65495,1.34232 1.27013,1.85633 0.61517,0.51402 1.40825,1.03746 2.44254,1.72607 l 0.0326,0.0326 0.0651,0.0326 c 0.34478,0.17239 0.39461,0.23983 0.55364,0.35824 -0.27851,0.11276 -0.65008,0.22546 -1.07472,0.32567 -1.90149,0.44875 -4.59199,0.61878 -4.59199,0.61878 0.38907,1.63887 3.05618,1.89395 5.0805,1.43296 0.55268,-0.13044 1.09327,-0.2808 1.56323,-0.48851 0.46996,-0.20771 0.90482,-0.46406 1.23755,-1.00959 0.33273,-0.54552 0.22679,-1.43041 -0.16283,-1.92146 -0.36734,-0.46298 -0.88471,-0.79225 -1.56323,-1.13986 -0.0443,-0.0295 -0.0545,-0.0363 -0.0976,-0.0651 -0.96623,-0.64402 -1.70535,-1.12704 -2.14944,-1.4981 -0.46399,-0.38768 -0.57406,-0.62402 -0.58621,-0.68391 -0.0122,-0.0599 -0.0173,-0.20105 0.26054,-0.68391 0.27784,-0.48286 0.82009,-1.20699 1.53066,-2.14944 1.47938,-1.96213 3.1081,-3.89941 4.23374,-4.39658 0.56282,-0.24859 0.85125,-0.25666 1.33526,0.0651 0.48401,0.3218 1.16117,1.18158 1.82377,2.80079 1.1775,-1.67146 0.89164,-3.46386 -0.65135,-4.52685 -0.52148,-0.34672 -1.11697,-0.52567 -1.6935,-0.55365 -0.14413,-0.007 -0.28033,-0.0117 -0.42337,0 z m -48.29721,2.37741 c -1.54168,0 -2.80078,1.98127 -2.80078,4.39658 0,2.41531 1.2591,4.36401 2.80078,4.36401 1.54169,0 2.76822,-1.9487 2.76822,-4.36401 0,-2.41531 -1.22653,-4.39658 -2.76822,-4.39658 z m -21.59209,0.74905 c -1.54169,0 -2.80079,1.9487 -2.80079,4.36401 0,2.41531 1.2591,4.39658 2.80079,4.39658 1.54169,0 2.76822,-1.98127 2.76822,-4.39658 0,-2.41531 -1.22653,-4.36401 -2.76822,-4.36401 z m -49.893047,0.52107 c -0.277515,0.003 -0.546025,0.0265 -0.814181,0.0651 -0.715073,0.10307 -1.408407,0.31671 -2.019171,0.68391 -1.221517,0.73441 -2.049997,2.07173 -2.214574,3.74524 -0.164576,1.67351 0.283893,3.68603 1.43296,6.05751 -0.01808,-3.62916 -0.180796,-6.00859 1.856334,-8.01155 1.348722,-0.81089 4.059746,-0.49282 6.415751,1.40039 0.154645,0.12427 0.280422,0.23622 0.423374,0.35824 -1.431037,0.68501 -4.94166,2.48158 -2.442545,5.69927 -0.07556,-0.94469 0.153207,-1.56155 0.521077,-2.0843 0.367869,-0.52276 0.893562,-0.93034 1.498094,-1.23756 0.918584,-0.46682 1.703679,-0.61963 2.116872,-0.68391 0.938535,1.13354 1.379055,2.14195 1.498095,3.02876 0.18665,1.39053 -0.34478,2.59242 -1.237557,3.64753 l -0.03257,0.0326 -0.03257,0.0651 c -1.114675,1.60721 -1.476802,3.16927 -1.237556,4.52685 0.239247,1.35758 1.030877,2.426 1.888903,3.22416 0.36427,0.33886 0.76052,0.62054 1.13986,0.87932 -0.38337,0.10213 -0.76514,0.21951 -1.17242,0.35824 1.649821,1.7279 5.504901,0.27136 8.304651,2.27971 1.28594,0.95966 1.62836,2.182 1.62836,2.182 0.98478,-1.90512 0.85814,-2.87471 -0.39081,-3.84293 -0.9156,-0.68329 -2.1636,-1.22126 -3.74523,-1.4004 -0.39541,-0.0448 -0.7997,-0.0688 -1.23756,-0.0651 l 0,-0.0651 c 0,0 -1.84167,-0.66118 -3.12646,-1.85633 -0.642391,-0.59757 -1.101701,-1.28082 -1.237551,-2.05174 -0.13168,-0.7472 0.032,-1.68078 0.84675,-2.89848 0.0247,-0.0292 0.0408,-0.0682 0.0651,-0.0977 1.115631,-1.35429 1.901011,-3.14697 1.628361,-5.1782 -0.2786,-2.07556 -1.627511,-4.24934 -4.364013,-6.44832 -1.873435,-1.50544 -4.017237,-2.33596 -5.959809,-2.31227 z m 94.445057,11.52881 c 0,0 4.24414,2.67777 5.4713,5.63414 1.3912,-2.02257 -3.65272,-6.58451 -5.4713,-5.63414 z m -25.36989,11.91962 c 0.39269,6.85406 9.16275,3.78602 8.23951,0.35824 -1.62018,1.40124 -2.93357,2.01299 -3.94064,2.18201 -1.00706,0.16902 -1.7491,-0.0591 -2.37741,-0.42337 -1.2566,-0.72847 -1.92146,-2.11688 -1.92146,-2.11688 z m -22.86222,2.08431 c -2.49034,3.55594 6.5142,5.61642 6.74142,1.7912 -2.9323,0.86244 -4.54328,0.30678 -5.50387,-0.35824 -0.96058,-0.66502 -1.23755,-1.43296 -1.23755,-1.43296 z m 10.61693,8.17438 c 0,0 -0.36336,4.49124 0.65134,9.83531 1.0147,5.34408 3.40299,11.68739 9.02113,15.33919 -7.28368,-7.4937 -7.41532,-17.27636 -9.67247,-25.1745 z m 4.52684,42.66304 c 0,0 0.10339,-2.27918 1.6935,-3.90808 0.79506,-0.81445 1.95195,-1.50609 3.81037,-1.69349 1.85842,-0.1874 4.42208,0.17515 7.94641,1.53066 -0.7398,-3.54421 -16.25255,-6.80292 -13.45028,4.07091 z m 4.62456,2.93113 c 0,0 0.16055,-0.83382 0.84674,-1.62836 0.6862,-0.79455 1.81664,-1.57286 4.33145,-1.23756 -2.84855,-3.49282 -7.4699,1.07245 -5.17819,2.86592 z m 9.67247,8.53262 c -0.13392,2.88848 -0.31151,7.55713 -0.1954,13.71082 0.0654,3.46452 0.24951,7.04496 0.58621,10.32382 -2.94637,2.49607 -7.47411,2.89973 -11.36597,2.57282 -2.85849,-0.24012 -5.24022,-0.85304 -6.38319,-1.17243 0.48076,-3.59866 0.70948,-7.49495 0.78162,-11.20313 0.11264,-5.78996 -0.13033,-10.90552 -0.29311,-13.71082 0.0661,0.0418 0.12912,0.0889 0.1954,0.13027 0.007,0.004 0.025,-0.004 0.0326,0 0.95914,0.64641 2.86789,2.64786 5.60157,3.48469 2.74671,0.84083 6.363,0.33124 10.42153,-3.45213 l 0,-0.0326 0.0326,-0.0326 c 0.18436,-0.19329 0.39616,-0.41406 0.58621,-0.61878 z m 0.68392,26.44462 c 0.005,0.0416 -0.005,0.0889 0,0.13027 0.4179,3.02248 0.97916,5.59638 1.92146,7.49047 -4.84591,4.32133 -10.58546,4.68364 -15.30661,3.94064 -3.41787,-0.5379 -6.15259,-1.63241 -7.49047,-2.24714 1.21488,-2.14601 1.96578,-5.02802 2.50768,-8.23952 1.31651,0.35429 3.69312,0.93278 6.54602,1.17242 3.76538,0.31629 8.30285,0.0916 11.82192,-2.24714 z"
         id="path2997"
         style="font-size:medium;font-style:normal;font-variant:normal;font-weight:normal;font-stretch:normal;text-indent:0;text-align:start;text-decoration:none;line-height:normal;letter-spacing:normal;word-spacing:normal;text-transform:none;direction:ltr;block-progression:tb;writing-mode:lr-tb;text-anchor:start;baseline-shift:baseline;color:#000000;fill:#000000;fill-opacity:1;stroke:none;stroke-width:2;marker:none;visibility:visible;display:inline;overflow:visible;enable-background:accumulate;font-family:Sans;-inkscape-font-specification:Sans" />
      <path
         d="m 167.47768,247.45089 c -0.87977,0.58469 -1.80216,1.02999 -2.78125,1.375 -0.97909,0.34501 -2.00879,0.59551 -3.03125,0.75 -2.04492,0.30898 -4.11731,0.28314 -6,0.125 -2.8529,-0.23964 -5.21474,-0.83321 -6.53125,-1.1875 -0.27095,1.60575 -0.59268,3.14106 -1,4.53125 -0.40732,1.39019 -0.92381,2.64575 -1.53125,3.71875 0.66894,0.30737 1.6906,0.73854 2.96875,1.15625 1.27815,0.41771 2.82232,0.8248 4.53125,1.09375 1.18029,0.18575 2.44104,0.27825 3.71875,0.28125 1.27771,0.003 2.59087,-0.10607 3.90625,-0.375 1.31538,-0.26893 2.61294,-0.68246 3.90625,-1.3125 1.29331,-0.63004 2.56977,-1.45092 3.78125,-2.53125 -0.47115,-0.94705 -0.84591,-2.0857 -1.15625,-3.34375 -0.31034,-1.25805 -0.5723,-2.64501 -0.78125,-4.15625 -0.005,-0.0414 0.005,-0.0834 0,-0.125 z"
         id="path3080"
         style="fill:#ffe767;fill-opacity:1;stroke:none" />
      <path
         d="m 100.00893,138.51339 c 0.10979,0.17285 0.23471,0.32587 0.34375,0.5 -0.0592,-0.0965 -0.0609,-0.18446 -0.125,-0.28125 -0.049,-0.0739 -0.16686,-0.14467 -0.21875,-0.21875 z"
         id="path3002"
         style="fill:#d45500;fill-opacity:1;stroke:none" />
      <path
         d="m 157.5,178.83928 a 2.0535715,6.6964288 0 1 1 -4.10715,0 2.0535715,6.6964288 0 1 1 4.10715,0 z"
         transform="matrix(0.73802233,-0.24493906,0.22771581,0.96753677,1.070389,44.59489)"
         id="path3806"
         style="fill:#ffe5b8;fill-opacity:1;stroke:none" />
      <path
         d="m 157.5,178.83928 a 2.0535715,6.6964288 0 1 1 -4.10715,0 2.0535715,6.6964288 0 1 1 4.10715,0 z"
         transform="matrix(0.34545877,-0.33335681,0.22629171,0.04712818,68.156051,249.96591)"
         id="path3808"
         style="fill:#ffe5b8;fill-opacity:1;stroke:none" />
      <path
         d="m 153.99771,98.856529 c 0,0 3.87448,-9.405799 11.99789,-1.076032 -1.83761,-3.010549 -6.82892,-9.723829 -11.99789,1.076032 z"
         id="path3814"
         style="fill:#ffec92;stroke:none" />
      <path
         d="m 133.0876,269.69542 c 0,0 10.98541,-10.48033 11.99556,-12.6269 3.283,1.51523 15.9099,7.19733 25.88516,-1.6415 1.76777,2.14657 8.5863,8.83883 12.62691,11.61675 -5.17704,-1.51523 -13.25826,-8.20749 -13.25826,-8.20749 0,0 -9.47018,9.21765 -24.24366,1.51523 -4.54568,4.54569 -10.22779,9.21764 -13.00571,9.34391 z"
         id="path3816"
         style="fill:#ab2535;stroke:none" />
      <path
         d="m 86.964286,141.51786 c 0,0 -0.982143,-13.03572 10.982143,-4.46429 -1.785714,1.42857 -4.107143,1.07143 -4.017857,3.39286 -1.25,-2.67858 -4.553572,-4.73215 -6.964286,1.07143 z"
         id="path3818"
         style="fill:#dd9e58;fill-opacity:1;stroke:none" />
      <path
         d="m 175.86124,17.094542 -0.58621,0.814182 c -0.8152,1.124424 -3.42514,3.83131 -6.64372,6.285482 -2.94954,2.249026 -6.45517,4.291762 -9.60734,5.11306 -1.62653,-3.509961 -5.28473,-7.61391 -12.96177,-11.333408 l -1.27013,-0.58621 -0.22797,1.335257 c -0.359,2.046311 -0.26517,4.074001 -1.66093,6.773991 -1.39048,2.689788 -4.3109,6.129435 -10.8449,10.421524 -0.0248,0.01628 -0.0402,0.01626 -0.0651,0.03257 -13.38676,7.482819 -27.95965,14.476773 -32.827801,28.691758 -1.899738,-0.989263 -4.045634,-1.84849 -6.220376,-2.084307 -2.687524,-0.291418 -5.452177,-0.753465 -7.653307,-1.400392 -2.753171,-1.015856 -3.12913,-1.369384 -5.959809,-1.204989 0.01865,0.03826 0.01402,0.05976 0.03257,0.0977 0.0073,0.01285 0.02454,0.01982 0.03257,0.03257 1.131507,2.316137 2.093684,4.078536 2.670516,5.666704 0.590244,1.625083 0.827292,3.095958 0.521076,5.178195 -0.354165,2.408317 -0.30483,5.960729 -0.130269,9.086266 0.08733,1.562769 0.207326,3.00914 0.325673,4.136043 0.01339,0.127433 0.01761,0.206464 0.03257,0.325672 -1.098231,-0.326826 -2.309347,-0.622423 -3.680101,-0.781614 -6.12618,-0.767071 -9.35592,-4.172845 -11.887051,-4.364018 0.001,0.0096 -0.001,0.023 0,0.03257 0.402907,2.451025 1.373776,7.191591 2.703083,11.952185 0.981457,3.51484 2.123969,7.0133 3.484697,9.672477 -1.639118,-0.35204 -3.569091,-0.54068 -5.82954,-0.45594 -1.304014,0.0489 -2.710065,0.19352 -4.233744,0.45594 l -1.954036,0.32567 1.367825,1.43296 c 5.288298,5.41729 16.23389,16.63797 19.931165,25.17449 -0.769442,1.66329 -5.582519,13.18437 2.344843,25.56531 l 0.0977,0.16283 0.130269,0.0976 c 4.180021,3.42001 8.001125,5.4064 10.030717,6.51345 0.894375,0.48785 2.356327,1.57585 3.582399,2.73565 1.226071,1.15981 2.185021,2.5085 2.312281,3.09389 0.1885,0.86714 0.71229,1.70431 1.49809,2.63795 0.7858,0.93365 1.83595,1.88499 3.12646,2.57282 2.25837,1.2037 5.33641,1.46328 8.30465,-0.65135 1.62784,4.08583 3.77604,9.06472 6.48088,14.4273 6.24503,12.38132 15.2759,26.5763 27.1611,35.00981 0.11391,1.59375 0.50009,7.82037 0.35824,15.11121 -0.0817,4.19712 -0.35995,8.64609 -0.97702,12.50583 -0.61707,3.85973 -1.61765,7.12062 -2.93105,8.89086 -2.98355,4.02129 -5.08619,5.999 -7.00196,7.84871 -1.91577,1.8497 -3.67283,3.62456 -5.69927,7.00196 3.1956,-1.67508 5.31587,-3.71551 7.1648,-5.50387 1.79273,-1.73091 3.90155,-3.76685 6.70885,-7.4579 1.34615,0.6268 4.48346,1.9612 8.36979,2.57281 5.0116,0.78871 11.41033,0.37788 16.77214,-4.23374 8.08744,7.72693 11.14121,10.51325 15.69742,11.95218 0,0 -9.46683,-7.62891 -14.3296,-13.51541 -0.94435,-1.14317 -1.85642,-4.21096 -2.37741,-7.97898 -0.52098,-3.76802 -0.76496,-8.26888 -0.84675,-12.60353 -0.15616,-8.27727 0.22321,-15.48184 0.26054,-16.15336 7.31684,-8.65939 17.46605,-24.48626 24.84882,-48.81833 0.8293,0.0488 1.94985,0.0527 3.15903,-0.16284 2.34308,-0.41775 5.12936,-1.846 5.95981,-5.24333 0.37275,-1.5249 0.52196,-2.57307 0.58621,-3.32186 0.0626,-0.73011 0.0534,-1.16382 0.0651,-1.27012 0.0168,-0.008 0.033,-0.008 0.0651,-0.0326 0.20092,-0.15373 0.71915,-0.48047 1.53066,-1.00958 0.0181,-0.009 0.0468,-0.0228 0.0651,-0.0326 1.96846,-1.04994 4.62591,-2.48784 7.13223,-5.40617 2.52962,-2.94544 4.87552,-7.35635 6.35062,-14.32959 1.44849,-6.84739 2.26203,-10.52999 1.82377,-13.25488 -0.21914,-1.36245 -0.84001,-2.46459 -1.75864,-3.35443 -0.63605,-0.61613 -1.4665,-1.14644 -2.37741,-1.6935 1.46623,-3.17213 4.61471,-9.3465 8.01155,-15.30661 1.88714,-3.31117 3.80069,-6.498207 5.50387,-8.988557 1.70318,-2.49036 3.34975,-4.287452 3.90807,-4.59199 l 2.40998,-1.30269 -2.67052,-0.651345 c -2.28835,-0.544848 -5.43103,-0.202626 -8.27208,0.423374 -1.21441,0.267583 -2.27797,0.608617 -3.25673,0.977018 1.15078,-2.814281 2.15765,-6.275911 1.92147,-10.747196 -0.31925,-6.044067 -2.85082,-13.291017 -9.96558,-20.875615 l -1.23756,-1.302691 -0.52108,1.693498 c -0.72421,2.304329 -1.36121,4.308868 -1.92146,5.82954 -0.14263,0.387133 -0.2191,0.394803 -0.35824,0.71648 -0.1038,-0.763106 -0.13501,-1.37287 -0.35824,-2.377411 -0.75269,-3.387097 -2.43659,-7.886433 -6.67629,-11.431109 l -1.13986,-0.944451 -0.52107,1.367826 c -0.56454,1.467789 -1.2149,2.733971 -1.82377,3.875504 -0.13781,-3.868694 -0.97927,-9.07995 -3.22416,-14.883239 C 193.05988,33.91536 187.1617,24.78475 176.7079,17.648018 l -0.84675,-0.553643 z m 0.39081,2.865919 c 9.57721,6.788351 15.094,15.240664 18.04226,22.862219 3.029,7.830276 3.385,14.83954 2.96362,17.879427 l -0.4885,3.582399 2.31227,-2.800784 c 0.95895,-1.150746 2.28192,-3.446596 3.4847,-6.220348 3.00345,2.978048 4.35813,6.438168 4.98279,9.249103 0.50477,2.066004 0.68461,4.064594 1.59579,5.82954 1.69932,-0.84943 2.68244,-2.673785 3.12646,-3.875504 0.40583,-1.101533 0.8763,-2.622987 1.33526,-4.070908 5.8255,6.727574 7.99824,12.922966 8.27208,18.107398 0.66946,3.821584 -2.1582,10.344133 -1.92146,13.05947 3.73377,-0.850931 7.19351,-1.855892 10.84489,-1.888899 -0.80384,0.922398 -1.62636,2.068249 -2.57281,3.452129 -1.75709,2.5692 -3.72951,5.809547 -5.63414,9.151397 -3.63142,6.3717 -6.84306,12.71141 -8.23951,15.82769 -1.03842,-0.26625 -2.09745,-0.30267 -3.09389,0.0326 -1.32201,0.44471 -2.52268,1.29903 -3.6801,2.40998 -2.31485,2.22188 -4.42335,5.46167 -6.25292,8.82573 -3.04392,5.59689 -4.92754,10.63507 -5.60157,12.47326 -0.86351,-0.82687 -3.00686,-2.93105 -5.50386,-5.40617 0.34426,-0.48153 0.65991,-0.8737 1.10728,-1.66093 0.69436,-1.22182 1.48633,-2.81344 2.34485,-4.62455 1.71701,-3.62222 3.62601,-8.15796 4.95022,-12.60353 l 0.0651,-0.26054 -0.0651,-0.22797 c -0.37719,-1.93983 -1.65676,-4.94405 -3.387,-8.59776 -1.73023,-3.6537 -3.89195,-7.87748 -6.02494,-11.887047 -3.32638,-6.252912 -5.96944,-10.960752 -7.22993,-13.189739 0.53448,0.04638 1.08521,0.07503 1.62836,0.09765 -3.50041,-2.047976 -12.53428,-3.804977 -17.912,-7.001961 -4.97711,-1.298792 -6.95992,0.182425 -11.55051,2.080879 l 1.42209,-2.601949 c -0.57009,0.332553 -2.45017,0.736179 -4.13604,1.074719 0.56078,-0.312224 0.6541,-0.459395 1.20499,-0.716479 l 3.06132,-1.43296 -3.32186,-0.553643 c -0.63239,-0.105397 -2.19853,-0.277929 -4.23374,-0.130269 -2.03521,0.147659 -4.54799,0.628464 -7.03453,1.921468 -2.2729,1.181909 -7.1879,3.485567 -12.34299,5.503868 -5.15509,2.018304 -10.63694,3.723453 -13.74339,3.842936 l -0.87932,0.06513 -0.13026,0.879316 c -0.10487,0.89127 -0.72762,3.357763 -1.66093,6.448314 -0.93331,3.09056 -2.16989,6.883087 -3.41957,10.747197 -2.49934,7.72823 -5.1039,15.71201 -5.92724,19.27982 l -0.0326,0.13027 0,0.16283 c 0.0845,1.43722 0.75829,3.02739 1.66093,4.81996 0.90264,1.79256 2.04424,3.72463 3.19159,5.50387 2.13356,3.30855 3.94921,5.71119 4.23375,6.09007 l -3.19159,8.82573 c -1.06397,-2.6543 -2.86386,-6.11186 -4.95023,-9.70504 -2.95901,-5.09609 -6.453066,-10.23691 -9.444502,-12.9292 l -0.0977,-0.0976 -0.0977,-0.0651 c -3.083708,-1.69107 -5.819264,-1.83712 -7.751009,-1.53066 -0.899617,0.14272 -1.607811,0.42529 -2.149439,0.65134 -3.848617,-8.61886 -13.136435,-18.28684 -18.661042,-23.93693 4.612359,-0.48859 7.920192,0.18643 10.030717,1.07472 2.415147,1.0165 3.321861,2.14944 3.321861,2.14944 0.364602,-1.78779 -1.115637,-3.46668 -2.507679,-4.07091 -0.04318,-0.0181 -0.08634,-0.0471 -0.130269,-0.0651 -1.570638,-2.182067 -3.237123,-6.668367 -4.494282,-11.170563 -0.900889,-3.226316 -1.329631,-5.635593 -1.823767,-8.109247 0.153092,0.09056 0.227262,0.204321 0.390807,0.293105 1.858418,1.008858 4.535031,1.932485 8.141816,2.800783 l 0.06513,0.03262 0.06513,0 c 3.485176,0.37678 5.862003,1.485067 7.392769,2.475112 1.530765,0.990045 2.149439,1.791199 2.149439,1.791199 0.53039,-2.142014 -1.640917,-4.057193 -3.289294,-4.787386 -0.04835,-0.336087 -0.108519,-0.785434 -0.162836,-1.302691 -0.114001,-1.085482 -0.240237,-2.476139 -0.325673,-4.005773 -0.17086,-3.059269 -0.206033,-6.597095 0.0977,-8.662892 0.351748,-2.391878 0.05753,-4.358252 -0.618778,-6.220347 -0.295617,-0.813902 -0.830178,-1.767682 -1.237556,-2.605381 0.62252,0.245219 1.210054,0.50739 1.921469,0.716479 2.388134,0.701888 5.238014,1.19735 8.011546,1.498094 2.447548,0.265397 5.263172,1.63122 7.425332,2.963621 2.16216,1.332402 3.64753,2.572814 3.64753,2.572814 0.0555,-2.962201 -0.92691,-3.360701 -2.54024,-4.364013 -0.0702,-0.04329 -0.15644,-0.08683 -0.22797,-0.130269 4.41516,-13.508496 18.43949,-20.365851 32.04618,-27.975279 l 0.0326,0 0.0326,-0.03257 c 6.77024,-4.435675 10.01212,-8.0802 11.62651,-11.203139 1.23613,-2.391203 1.47558,-4.299332 1.66093,-5.894674 7.23489,3.810401 10.15398,7.77505 11.17058,10.747196 1.08141,3.16161 0.26053,5.178195 0.26053,5.178195 2.92325,-1.935218 2.1933,-4.055827 1.88894,-5.210762 3.55575,-0.959405 7.13653,-3.132579 10.16099,-5.438733 2.90143,-2.212332 5.05992,-4.346353 6.35062,-5.894674 z m -27.64961,58.327968 c -1.10461,0.703114 -2.96362,1.758633 -2.96362,1.758633 l -3.22416,2.279708 3.94064,-0.390807 c 0,0 1.9132,-0.166366 4.13604,-0.521076 0.33447,-0.05337 0.67008,-0.137841 1.00959,-0.195404 l -2.27971,1.888901 3.4847,-0.423374 c 0,0 3.20787,-0.371765 6.18778,-1.921469 0.0566,-0.02202 0.0747,-0.01145 0.13027,-0.03257 3.07901,-1.170964 4.51358,-0.999936 5.73184,-0.390807 1.28053,0.640266 7.26584,3.582183 14.6227,4.722253 0.51849,0.910205 4.03091,7.07093 7.97898,14.492436 2.12401,3.992667 4.2856,8.185197 5.99237,11.789347 1.66655,3.51921 2.8467,6.46044 3.15903,7.91384 -1.2767,4.21054 -3.04857,8.55523 -4.68969,12.01732 -0.83964,1.7713 -1.65159,3.29915 -2.31227,4.46172 -0.66069,1.16256 -1.2527,2.00174 -1.36783,2.11687 l -0.74905,0.74905 0.74905,0.74904 c 0.97074,0.97075 1.93342,1.92618 2.93105,2.89849 -2.25333,-1.08465 -3.2538,-1.08237 -4.29887,-0.45594 0,0 1.40705,0.88018 3.06132,2.11687 1.65427,1.23669 3.54065,2.87941 4.29888,4.07091 l 1.72606,-1.10729 0.71648,0.68391 0.52108,-1.53066 c 0,0 2.50534,-7.11427 6.05751,-13.64568 1.77609,-3.26571 3.83271,-6.38933 5.86211,-8.33722 1.01469,-0.97394 2.02934,-1.65072 2.93105,-1.95404 0.90171,-0.30331 1.65595,-0.28654 2.50768,0.13027 l 0.97702,0.48851 0.0977,-0.22797 c 0.74331,0.46226 1.37163,0.89626 1.7912,1.30269 0.65635,0.6358 0.98066,1.22482 1.13985,2.21458 0.31838,1.97949 -0.3121,5.60256 -1.75863,12.44069 -1.41991,6.7123 -3.62121,10.77052 -5.89468,13.41771 -2.27346,2.64719 -4.63675,3.92977 -6.61115,4.98279 l -0.0326,0 -0.0651,0.0326 c -0.84148,0.55021 -1.32218,0.83085 -1.72606,1.13986 -0.40388,0.30901 -0.77781,0.89903 -0.84675,1.36782 -0.0689,0.46879 -0.0428,0.79182 -0.0976,1.43296 -0.055,0.64114 -0.17008,1.56029 -0.52107,2.99619 -0.61705,2.5243 -2.4307,3.3412 -4.33145,3.6801 -0.7921,0.14123 -1.51949,0.14427 -2.14944,0.13027 0.88215,-3.02993 1.72319,-6.15823 2.50768,-9.44451 2.28117,-5.6732 6.89192,-7.01045 9.3468,-9.90044 -3.44454,1.58262 -5.47043,2.49786 -7.09966,3.74523 -1.62923,1.24737 -2.71891,2.78699 -4.13604,5.24333 l -0.0976,0.13027 -0.0326,0.13027 c -8.1386,34.21911 -22.14415,54.21497 -30.15729,62.62685 -0.007,0.006 -0.0253,-0.006 -0.0326,0 -0.004,0.005 0.004,0.0276 0,0.0326 -3.6846,3.4194 -6.25523,3.60096 -8.33722,2.96363 -2.08928,-0.63958 -3.66641,-2.28144 -5.08049,-3.22416 l 0,-0.0326 -0.0326,0 c -12.46562,-7.77495 -22.21859,-22.73155 -28.78946,-35.75886 -6.57086,-13.02731 -9.96558,-24.06721 -9.96558,-24.06721 -1.34011,1.26554 0.24124,6.98471 0.84675,8.5652 -2.53908,2.11984 -4.69279,1.83451 -6.54602,0.84674 -1.00084,-0.53343 -1.87157,-1.32852 -2.50768,-2.0843 -0.63611,-0.75578 -0.99804,-1.55571 -1.04215,-1.75863 -0.33799,-1.55474 -1.57501,-2.88587 -2.93106,-4.16861 -1.356041,-1.28275 -2.885621,-2.40001 -4.038336,-3.02876 -2.046849,-1.11647 -5.607374,-3.02482 -9.574775,-6.25291 -7.209923,-11.45746 -2.838729,-21.74774 -2.116872,-23.2856 0.115283,-0.0724 0.828438,-0.52397 2.247141,-0.74904 1.511715,-0.23982 3.663593,-0.13002 6.285482,1.27012 2.585267,2.35907 6.077749,7.38601 8.956,12.34299 2.90309,4.99977 5.24869,10.1021 5.63413,11.95219 0.87663,0.15704 1.32507,0.19328 1.9866,0.42338 l 4.49429,-12.343 0.1954,-0.55364 -0.35824,-0.45594 c 0,0 -2.21652,-2.93408 -4.46171,-6.41575 -1.1226,-1.74085 -2.24472,-3.58951 -3.09389,-5.2759 -0.82878,-1.64587 -1.33125,-3.12548 -1.4004,-3.94064 0.78622,-3.33879 3.35419,-11.23496 5.82954,-18.88901 1.25058,-3.86689 2.47769,-7.660837 3.41957,-10.779767 0.83862,-2.777022 1.32593,-4.69725 1.56322,-6.090077 3.69832,-0.320805 8.69656,-1.885451 13.61312,-3.810369 5.23643,-2.050147 10.1914,-4.364195 12.57096,-5.601569 2.33671,-1.215085 4.618,-1.600354 6.51346,-1.693497 z m 11.30084,13.32001 c -0.22737,-0.0021 -0.45772,0.0031 -0.68391,0.03262 -0.90478,0.118274 -1.78546,0.491323 -2.57281,1.172422 -1.57472,1.362192 -2.81806,3.713142 -3.77781,7.360199 l -0.78161,3.02875 2.44254,-1.92146 c 0,0 1.82776,-1.429897 4.33145,-1.888907 2.50369,-0.459 5.53415,-0.10462 8.50006,3.908077 1.90555,-5.088377 -3.13353,-10.731526 -5.4713,-11.268273 -0.62782,-0.277286 -1.30448,-0.416747 -1.98661,-0.423375 z m -0.3908,2.019174 c 0.48805,-0.0613 0.972,0.0789 1.53066,0.32567 1.38046,0.6097 2.82374,2.45093 4.10347,4.65712 -2.33389,-1.33578 -4.72172,-1.62846 -6.67629,-1.27013 -1.10141,0.20193 -1.89183,0.60829 -2.70308,0.97702 0.7222,-1.84522 1.50268,-3.26407 2.24714,-3.90807 0.52697,-0.45585 1.01005,-0.72034 1.4981,-0.78161 z m -26.83543,1.75863 c -1.88509,0.041 -3.77536,0.92412 -5.14563,2.80078 -1.37026,1.876667 -2.26994,4.670227 -2.60538,8.695457 l -0.32567,3.84294 2.21457,-3.15903 c 0,0 4.33126,-6.38948 14.45987,-5.14562 l 2.50768,0.2931 -1.56323,-1.9866 c -2.12137,-2.727477 -5.77203,-5.422987 -9.54221,-5.341027 z m 0.0651,2.0843 c 1.89845,-0.0413 3.99244,1.25372 5.79697,2.768217 -5.3766,0.0956 -8.88087,2.16343 -11.00774,3.90807 0.42741,-2.06113 0.97703,-3.77356 1.6935,-4.754817 1.03739,-1.42076 2.19215,-1.89266 3.51727,-1.92147 z m 31.16687,15.860257 c -1.34208,0 -2.56043,0.75703 -3.54984,1.8889 -0.9894,1.13187 -1.82176,2.67167 -2.50767,4.52685 -1.37182,3.71035 -2.18201,8.7209 -2.18201,14.2319 0,5.51099 0.81019,10.48898 2.18201,14.19932 0.68591,1.85518 1.51827,3.39498 2.50767,4.52685 0.98941,1.13187 2.20776,1.8889 3.54984,1.8889 1.34207,0 2.52785,-0.75703 3.51726,-1.8889 0.98941,-1.13187 1.82178,-2.67167 2.50768,-4.52685 1.37183,-3.71034 2.18201,-8.68833 2.18201,-14.19932 0,-5.511 -0.81018,-10.52155 -2.18201,-14.2319 -0.6859,-1.85518 -1.51827,-3.39498 -2.50768,-4.52685 -0.98941,-1.13187 -2.17519,-1.8889 -3.51726,-1.8889 z m -23.44843,0.55364 c -1.34208,0 -2.56043,0.75703 -3.54983,1.88891 -0.98941,1.13187 -1.82177,2.67167 -2.50768,4.52684 -1.37182,3.71035 -2.18201,8.7209 -2.18201,14.2319 0,5.51099 0.81019,10.48898 2.18201,14.19933 0.68591,1.85517 1.51827,3.39497 2.50768,4.52684 0.9894,1.13188 2.20775,1.88891 3.54983,1.88891 1.34207,0 2.52785,-0.75703 3.51726,-1.88891 0.98941,-1.13187 1.82178,-2.67167 2.50768,-4.52684 1.37183,-3.71035 2.18201,-8.68834 2.18201,-14.19933 0,-5.511 -0.81018,-10.52155 -2.18201,-14.2319 -0.6859,-1.85517 -1.51827,-3.39497 -2.50768,-4.52684 -0.98941,-1.13188 -2.17519,-1.88891 -3.51726,-1.88891 z m 23.44843,1.62837 c 0.65294,0 1.31247,0.3267 2.05173,1.17242 0.73927,0.84572 1.49539,2.162 2.11688,3.84294 1.24298,3.36186 2.01917,8.16943 2.01917,13.45028 0,5.28084 -0.77619,10.05584 -2.01917,13.41771 -0.62149,1.68094 -1.37761,2.99722 -2.11688,3.84293 -0.73926,0.84572 -1.39879,1.17243 -2.05173,1.17243 -0.65294,0 -1.34504,-0.32671 -2.08431,-1.17243 -0.73926,-0.84571 -1.49538,-2.16199 -2.11687,-3.84293 -1.24299,-3.36187 -2.01917,-8.13687 -2.01917,-13.41771 0,-5.28085 0.77618,-10.08842 2.01917,-13.45028 0.62149,-1.68094 1.37761,-2.99722 2.11687,-3.84294 0.73927,-0.84572 1.43137,-1.17242 2.08431,-1.17242 z m -23.44843,0.55364 c 0.65294,0 1.31247,0.3267 2.05173,1.17242 0.73927,0.84572 1.49539,2.162 2.11688,3.84294 1.24298,3.36187 2.01917,8.16943 2.01917,13.45028 0,5.28085 -0.77619,10.05584 -2.01917,13.41771 -0.62149,1.68094 -1.37761,2.99722 -2.11688,3.84294 -0.73926,0.84572 -1.39879,1.17242 -2.05173,1.17242 -0.65294,0 -1.34504,-0.3267 -2.08431,-1.17242 -0.73926,-0.84572 -1.49538,-2.162 -2.11687,-3.84294 -1.24299,-3.36187 -2.01917,-8.13686 -2.01917,-13.41771 0,-5.28085 0.77618,-10.08841 2.01917,-13.45028 0.62149,-1.68094 1.37761,-2.99722 2.11687,-3.84294 0.73927,-0.84572 1.43137,-1.17242 2.08431,-1.17242 z m 70.47555,13.45028 c -0.42914,0.0351 -0.85654,0.1574 -1.23755,0.32567 -2.03207,0.89753 -3.55466,3.06737 -5.04793,5.04793 -0.71295,0.9456 -1.27265,1.67008 -1.66093,2.34484 -0.38827,0.67476 -0.64445,1.3805 -0.48851,2.14944 0.15595,0.76894 0.65495,1.34232 1.27013,1.85633 0.61517,0.51402 1.40825,1.03746 2.44254,1.72607 l 0.0326,0.0326 0.0651,0.0326 c 0.34478,0.17239 0.39461,0.23983 0.55364,0.35824 -0.27851,0.11276 -0.65008,0.22546 -1.07472,0.32567 -1.90149,0.44875 -4.59199,0.61878 -4.59199,0.61878 0.38907,1.63887 3.05618,1.89395 5.0805,1.43296 0.55268,-0.13044 1.09327,-0.2808 1.56323,-0.48851 0.46996,-0.20771 0.90482,-0.46406 1.23755,-1.00959 0.33273,-0.54552 0.22679,-1.43041 -0.16283,-1.92146 -0.36734,-0.46298 -0.88471,-0.79225 -1.56323,-1.13986 -0.0443,-0.0295 -0.0545,-0.0363 -0.0976,-0.0651 -0.96623,-0.64402 -1.70535,-1.12704 -2.14944,-1.4981 -0.46399,-0.38768 -0.57406,-0.62402 -0.58621,-0.68391 -0.0122,-0.0599 -0.0173,-0.20105 0.26054,-0.68391 0.27784,-0.48286 0.82009,-1.20699 1.53066,-2.14944 1.47938,-1.96213 3.1081,-3.89941 4.23374,-4.39658 0.56282,-0.24859 0.85125,-0.25666 1.33526,0.0651 0.48401,0.3218 1.16117,1.18158 1.82377,2.80079 1.1775,-1.67146 0.89164,-3.46386 -0.65135,-4.52685 -0.52148,-0.34672 -1.11697,-0.52567 -1.6935,-0.55365 -0.14413,-0.007 -0.28033,-0.0117 -0.42337,0 z m -48.29721,2.37741 c -1.54168,0 -2.80078,1.98127 -2.80078,4.39658 0,2.41531 1.2591,4.36401 2.80078,4.36401 1.54169,0 2.76822,-1.9487 2.76822,-4.36401 0,-2.41531 -1.22653,-4.39658 -2.76822,-4.39658 z m -21.59209,0.74905 c -1.54169,0 -2.80079,1.9487 -2.80079,4.36401 0,2.41531 1.2591,4.39658 2.80079,4.39658 1.54169,0 2.76822,-1.98127 2.76822,-4.39658 0,-2.41531 -1.22653,-4.36401 -2.76822,-4.36401 z m -49.893047,0.52107 c -0.277515,0.003 -0.546025,0.0265 -0.814181,0.0651 -0.715073,0.10307 -1.408407,0.31671 -2.019171,0.68391 -1.221517,0.73441 -2.049997,2.07173 -2.214574,3.74524 -0.164576,1.67351 0.283893,3.68603 1.43296,6.05751 -0.01808,-3.62916 -0.180796,-6.00859 1.856334,-8.01155 1.348722,-0.81089 4.059746,-0.49282 6.415751,1.40039 0.154645,0.12427 0.280422,0.23622 0.423374,0.35824 -1.431037,0.68501 -4.94166,2.48158 -2.442545,5.69927 -0.07556,-0.94469 0.153207,-1.56155 0.521077,-2.0843 0.367869,-0.52276 0.893562,-0.93034 1.498094,-1.23756 0.918584,-0.46682 1.703679,-0.61963 2.116872,-0.68391 0.938535,1.13354 1.379055,2.14195 1.498095,3.02876 0.18665,1.39053 -0.34478,2.59242 -1.237557,3.64753 l -0.03257,0.0326 -0.03257,0.0651 c -1.114675,1.60721 -1.476802,3.16927 -1.237556,4.52685 0.239247,1.35758 1.030877,2.426 1.888903,3.22416 0.36427,0.33886 0.76052,0.62054 1.13986,0.87932 -0.38337,0.10213 -0.76514,0.21951 -1.17242,0.35824 1.649821,1.7279 5.504901,0.27136 8.304651,2.27971 1.28594,0.95966 1.62836,2.182 1.62836,2.182 0.98478,-1.90512 0.85814,-2.87471 -0.39081,-3.84293 -0.9156,-0.68329 -2.1636,-1.22126 -3.74523,-1.4004 -0.39541,-0.0448 -0.7997,-0.0688 -1.23756,-0.0651 l 0,-0.0651 c 0,0 -1.84167,-0.66118 -3.12646,-1.85633 -0.642391,-0.59757 -1.101701,-1.28082 -1.237551,-2.05174 -0.13168,-0.7472 0.032,-1.68078 0.84675,-2.89848 0.0247,-0.0292 0.0408,-0.0682 0.0651,-0.0977 1.115631,-1.35429 1.901011,-3.14697 1.628361,-5.1782 -0.2786,-2.07556 -1.627511,-4.24934 -4.364013,-6.44832 -1.873435,-1.50544 -4.017237,-2.33596 -5.959809,-2.31227 z m 94.445057,11.52881 c 0,0 4.24414,2.67777 5.4713,5.63414 1.3912,-2.02257 -3.65272,-6.58451 -5.4713,-5.63414 z m -25.36989,11.91962 c 0.39269,6.85406 9.16275,3.78602 8.23951,0.35824 -1.62018,1.40124 -2.93357,2.01299 -3.94064,2.18201 -1.00706,0.16902 -1.7491,-0.0591 -2.37741,-0.42337 -1.2566,-0.72847 -1.92146,-2.11688 -1.92146,-2.11688 z m -22.86222,2.08431 c -2.49034,3.55594 6.5142,5.61642 6.74142,1.7912 -2.9323,0.86244 -4.54328,0.30678 -5.50387,-0.35824 -0.96058,-0.66502 -1.23755,-1.43296 -1.23755,-1.43296 z m 10.61693,8.17438 c 0,0 -0.36336,4.49124 0.65134,9.83531 1.0147,5.34408 3.40299,11.68739 9.02113,15.33919 -7.28368,-7.4937 -7.41532,-17.27636 -9.67247,-25.1745 z m 4.52684,42.66304 c 0,0 0.10339,-2.27918 1.6935,-3.90808 0.79506,-0.81445 1.95195,-1.50609 3.81037,-1.69349 1.85842,-0.1874 4.42208,0.17515 7.94641,1.53066 -0.7398,-3.54421 -16.25255,-6.80292 -13.45028,4.07091 z m 4.62456,2.93113 c 0,0 0.16055,-0.83382 0.84674,-1.62836 0.6862,-0.79455 1.81664,-1.57286 4.33145,-1.23756 -2.84855,-3.49282 -7.4699,1.07245 -5.17819,2.86592 z m 9.67247,8.53262 c -0.13392,2.88848 -0.31151,7.55713 -0.1954,13.71082 0.0654,3.46452 0.24951,7.04496 0.58621,10.32382 -2.94637,2.49607 -7.47411,2.89973 -11.36597,2.57282 -2.85849,-0.24012 -5.24022,-0.85304 -6.38319,-1.17243 0.48076,-3.59866 0.70948,-7.49495 0.78162,-11.20313 0.11264,-5.78996 -0.13033,-10.90552 -0.29311,-13.71082 0.0661,0.0418 0.12912,0.0889 0.1954,0.13027 0.007,0.004 0.025,-0.004 0.0326,0 0.95914,0.64641 2.86789,2.64786 5.60157,3.48469 2.74671,0.84083 6.363,0.33124 10.42153,-3.45213 l 0,-0.0326 0.0326,-0.0326 c 0.18436,-0.19329 0.39616,-0.41406 0.58621,-0.61878 z m 0.68392,26.44462 c 0.005,0.0416 -0.005,0.0889 0,0.13027 0.4179,3.02248 0.97916,5.59638 1.92146,7.49047 -4.84591,4.32133 -10.58546,4.68364 -15.30661,3.94064 -3.41787,-0.5379 -6.15259,-1.63241 -7.49047,-2.24714 1.21488,-2.14601 1.96578,-5.02802 2.50768,-8.23952 1.31651,0.35429 3.69312,0.93278 6.54602,1.17242 3.76538,0.31629 8.30285,0.0916 11.82192,-2.24714 z"
         id="path3812"
         style="font-size:medium;font-style:normal;font-variant:normal;font-weight:normal;font-stretch:normal;text-indent:0;text-align:start;text-decoration:none;line-height:normal;letter-spacing:normal;word-spacing:normal;text-transform:none;direction:ltr;block-progression:tb;writing-mode:lr-tb;text-anchor:start;baseline-shift:baseline;color:#000000;fill:#000000;fill-opacity:1;stroke:none;stroke-width:2;marker:none;visibility:visible;display:inline;overflow:visible;enable-background:accumulate;font-family:Sans;-inkscape-font-specification:Sans" />
    </g>
  </g>
</svg>
